<svg id="Layer_1" data-name="Layer 1" xmlns="http://www.w3.org/2000/svg" xmlns:xlink="http://www.w3.org/1999/xlink" viewBox="0 0 2788 1684"><defs><style>.cls-1,.cls-10,.cls-11,.cls-12,.cls-13,.cls-14,.cls-15,.cls-16,.cls-17,.cls-18,.cls-19,.cls-20,.cls-21,.cls-22,.cls-23,.cls-24,.cls-25,.cls-26,.cls-27,.cls-28,.cls-29,.cls-3,.cls-30,.cls-31,.cls-32,.cls-33,.cls-34,.cls-35,.cls-36,.cls-37,.cls-38,.cls-39,.cls-4,.cls-40,.cls-41,.cls-42,.cls-43,.cls-44,.cls-45,.cls-46,.cls-47,.cls-48,.cls-49,.cls-5,.cls-50,.cls-51,.cls-52,.cls-53,.cls-54,.cls-55,.cls-56,.cls-57,.cls-58,.cls-59,.cls-6,.cls-60,.cls-7,.cls-8,.cls-9{fill:none;}.cls-2{clip-path:url(#clip-path);}.cls-10,.cls-11,.cls-12,.cls-13,.cls-14,.cls-15,.cls-16,.cls-17,.cls-18,.cls-19,.cls-20,.cls-21,.cls-22,.cls-23,.cls-24,.cls-25,.cls-26,.cls-27,.cls-28,.cls-29,.cls-3,.cls-30,.cls-31,.cls-32,.cls-33,.cls-34,.cls-35,.cls-36,.cls-37,.cls-38,.cls-39,.cls-4,.cls-40,.cls-41,.cls-42,.cls-43,.cls-44,.cls-45,.cls-46,.cls-47,.cls-48,.cls-49,.cls-5,.cls-50,.cls-51,.cls-52,.cls-53,.cls-54,.cls-55,.cls-56,.cls-57,.cls-58,.cls-59,.cls-6,.cls-60,.cls-7,.cls-8,.cls-9{stroke:#231f20;}.cls-10,.cls-11,.cls-12,.cls-13,.cls-14,.cls-15,.cls-16,.cls-17,.cls-18,.cls-19,.cls-20,.cls-21,.cls-22,.cls-23,.cls-24,.cls-25,.cls-26,.cls-27,.cls-28,.cls-29,.cls-3,.cls-30,.cls-31,.cls-32,.cls-33,.cls-34,.cls-35,.cls-36,.cls-37,.cls-38,.cls-39,.cls-4,.cls-40,.cls-41,.cls-42,.cls-43,.cls-44,.cls-45,.cls-46,.cls-47,.cls-48,.cls-49,.cls-5,.cls-50,.cls-51,.cls-52,.cls-53,.cls-54,.cls-55,.cls-56,.cls-57,.cls-58,.cls-59,.cls-60,.cls-7,.cls-8,.cls-9{stroke-miterlimit:10;}.cls-3{stroke-width:0.1px;}.cls-4{stroke-width:0.19px;}.cls-5{stroke-width:0.27px;}.cls-6{stroke-miterlimit:10;stroke-width:0.36px;}.cls-7{stroke-width:0.44px;}.cls-8{stroke-width:0.53px;}.cls-9{stroke-width:0.62px;}.cls-10{stroke-width:0.7px;}.cls-11{stroke-width:0.79px;}.cls-12{stroke-width:0.87px;}.cls-13{stroke-width:0.96px;}.cls-14{stroke-width:1.05px;}.cls-15{stroke-width:1.13px;}.cls-16{stroke-width:1.22px;}.cls-17{stroke-width:1.3px;}.cls-18{stroke-width:1.39px;}.cls-19{stroke-width:1.48px;}.cls-20{stroke-width:1.56px;}.cls-21{stroke-width:1.65px;}.cls-22{stroke-width:1.73px;}.cls-23{stroke-width:1.82px;}.cls-24{stroke-width:1.91px;}.cls-25{stroke-width:1.99px;}.cls-26{stroke-width:2.08px;}.cls-27{stroke-width:2.16px;}.cls-28{stroke-width:2.25px;}.cls-29{stroke-width:2.34px;}.cls-30{stroke-width:2.42px;}.cls-31{stroke-width:2.51px;}.cls-32{stroke-width:2.59px;}.cls-33{stroke-width:2.68px;}.cls-34{stroke-width:2.76px;}.cls-35{stroke-width:2.85px;}.cls-36{stroke-width:2.94px;}.cls-37{stroke-width:3.02px;}.cls-38{stroke-width:3.11px;}.cls-39{stroke-width:3.19px;}.cls-40{stroke-width:3.28px;}.cls-41{stroke-width:3.37px;}.cls-42{stroke-width:3.45px;}.cls-43{stroke-width:3.54px;}.cls-44{stroke-width:3.62px;}.cls-45{stroke-width:3.71px;}.cls-46{stroke-width:3.8px;}.cls-47{stroke-width:3.88px;}.cls-48{stroke-width:3.97px;}.cls-49{stroke-width:4.05px;}.cls-50{stroke-width:4.14px;}.cls-51{stroke-width:4.23px;}.cls-52{stroke-width:4.31px;}.cls-53{stroke-width:4.4px;}.cls-54{stroke-width:4.48px;}.cls-55{stroke-width:4.57px;}.cls-56{stroke-width:4.66px;}.cls-57{stroke-width:4.74px;}.cls-58{stroke-width:4.83px;}.cls-59{stroke-width:4.91px;}.cls-60{stroke-width:5px;}</style><clipPath id="clip-path"><rect class="cls-1" y="-5.86" width="2788" height="1689.86"/></clipPath></defs><g class="cls-2"><line class="cls-3" x2="2788"/><line class="cls-3" y1="4" x2="2788" y2="4"/><line class="cls-3" y1="8" x2="2788" y2="8"/><line class="cls-3" y1="12" x2="2788" y2="12"/><line class="cls-3" y1="16" x2="2788" y2="16"/><line class="cls-3" y1="20" x2="2788" y2="20"/><line class="cls-3" y1="24" x2="2788" y2="24"/><line class="cls-3" y1="28" x2="2788" y2="28"/><line class="cls-3" y1="32" x2="2788" y2="32"/><line class="cls-3" y1="36" x2="2788" y2="36"/><line class="cls-3" y1="40" x2="2788" y2="40"/><line class="cls-3" y1="44" x2="2788" y2="44"/><line class="cls-3" y1="48" x2="2788" y2="48"/><line class="cls-3" y1="52" x2="2788" y2="52"/><line class="cls-3" y1="56" x2="2788" y2="56"/><line class="cls-3" y1="60" x2="2788" y2="60"/><line class="cls-3" y1="64" x2="2788" y2="64"/><line class="cls-3" y1="68" x2="2788" y2="68"/><line class="cls-3" y1="72" x2="2788" y2="72"/><line class="cls-3" y1="76" x2="2788" y2="76"/><line class="cls-3" y1="80" x2="2788" y2="80"/><line class="cls-3" y1="84" x2="2788" y2="84"/><line class="cls-3" y1="88" x2="2788" y2="88"/><line class="cls-3" y1="92" x2="2788" y2="92"/><line class="cls-3" y1="96" x2="2788" y2="96"/><line class="cls-3" y1="100" x2="2788" y2="100"/><line class="cls-3" y1="104" x2="2788" y2="104"/><line class="cls-3" y1="108" x2="2788" y2="108"/><line class="cls-3" y1="112" x2="2788" y2="112"/><line class="cls-3" y1="116" x2="2788" y2="116"/><line class="cls-3" y1="120" x2="2788" y2="120"/><line class="cls-3" y1="124" x2="2788" y2="124"/><line class="cls-3" y1="128" x2="2788" y2="128"/><line class="cls-3" y1="132" x2="2788" y2="132"/><line class="cls-3" y1="136" x2="2788" y2="136"/><line class="cls-3" y1="140" x2="2788" y2="140"/><line class="cls-3" y1="144" x2="2788" y2="144"/><line class="cls-3" y1="148" x2="2788" y2="148"/><line class="cls-3" y1="152" x2="2788" y2="152"/><line class="cls-3" y1="156" x2="2788" y2="156"/><line class="cls-3" y1="160" x2="2788" y2="160"/><line class="cls-3" y1="164" x2="2788" y2="164"/><line class="cls-3" y1="168" x2="2788" y2="168"/><line class="cls-3" y1="172" x2="2788" y2="172"/><line class="cls-3" y1="176" x2="2788" y2="176"/><line class="cls-3" y1="180" x2="2788" y2="180"/><line class="cls-3" y1="184" x2="2788" y2="184"/><line class="cls-3" y1="188" x2="2788" y2="188"/><line class="cls-3" y1="192" x2="2788" y2="192"/><line class="cls-3" y1="196" x2="2788" y2="196"/><line class="cls-3" y1="200" x2="2788" y2="200"/><line class="cls-3" y1="204" x2="2788" y2="204"/><line class="cls-3" y1="208" x2="2788" y2="208"/><line class="cls-3" y1="212" x2="2788" y2="212"/><line class="cls-3" y1="216" x2="2788" y2="216"/><line class="cls-3" y1="220" x2="2788" y2="220"/><line class="cls-3" y1="224" x2="2788" y2="224"/><line class="cls-3" y1="228" x2="2788" y2="228"/><line class="cls-3" y1="232" x2="2788" y2="232"/><line class="cls-3" y1="236" x2="2788" y2="236"/><line class="cls-3" y1="240" x2="2788" y2="240"/><line class="cls-3" y1="244" x2="2788" y2="244"/><line class="cls-3" y1="248" x2="2788" y2="248"/><line class="cls-3" y1="252" x2="2788" y2="252"/><line class="cls-3" y1="256" x2="2788" y2="256"/><line class="cls-3" y1="260" x2="2788" y2="260"/><line class="cls-3" y1="264" x2="2788" y2="264"/><line class="cls-3" y1="268" x2="2788" y2="268"/><line class="cls-3" y1="272" x2="2788" y2="272"/><line class="cls-3" y1="276" x2="2788" y2="276"/><line class="cls-3" y1="280" x2="2788" y2="280"/><line class="cls-3" y1="284" x2="2788" y2="284"/><line class="cls-3" y1="288" x2="2788" y2="288"/><line class="cls-3" y1="292" x2="2788" y2="292"/><line class="cls-3" y1="296" x2="2788" y2="296"/><line class="cls-3" y1="300" x2="2788" y2="300"/><line class="cls-3" y1="304" x2="2788" y2="304"/><line class="cls-3" y1="308" x2="2788" y2="308"/><line class="cls-3" y1="312" x2="2788" y2="312"/><line class="cls-3" y1="316" x2="2788" y2="316"/><line class="cls-3" y1="320" x2="2788" y2="320"/><line class="cls-3" y1="324" x2="2788" y2="324"/><line class="cls-3" y1="328" x2="2788" y2="328"/><line class="cls-3" y1="332" x2="2788" y2="332"/><line class="cls-3" y1="336" x2="2788" y2="336"/><line class="cls-3" y1="340" x2="2788" y2="340"/><line class="cls-3" y1="344" x2="2788" y2="344"/><line class="cls-3" y1="348" x2="2788" y2="348"/><line class="cls-3" y1="352" x2="2788" y2="352"/><line class="cls-3" y1="356" x2="2788" y2="356"/><line class="cls-3" y1="360" x2="2788" y2="360"/><line class="cls-3" y1="364" x2="2788" y2="364"/><line class="cls-3" y1="368" x2="2788" y2="368"/><line class="cls-3" y1="372" x2="2788" y2="372"/><line class="cls-3" y1="376" x2="2788" y2="376"/><line class="cls-3" y1="380" x2="2788" y2="380"/><line class="cls-3" y1="384" x2="2788" y2="384"/><line class="cls-3" y1="388" x2="2788" y2="388"/><line class="cls-3" y1="392" x2="2788" y2="392"/><line class="cls-3" y1="396" x2="2788" y2="396"/><line class="cls-3" y1="400" x2="2788" y2="400"/><line class="cls-3" y1="404" x2="2788" y2="404"/><line class="cls-3" y1="408" x2="2788" y2="408"/><line class="cls-3" y1="412" x2="2788" y2="412"/><line class="cls-3" y1="416" x2="2788" y2="416"/><line class="cls-3" y1="420" x2="2788" y2="420"/><line class="cls-3" y1="424" x2="2788" y2="424"/><line class="cls-3" y1="428" x2="2788" y2="428"/><line class="cls-3" y1="432" x2="2788" y2="432"/><line class="cls-3" y1="436" x2="2788" y2="436"/><line class="cls-3" y1="440" x2="2788" y2="440"/><line class="cls-3" y1="444" x2="2788" y2="444"/><line class="cls-3" y1="448" x2="2788" y2="448"/><line class="cls-3" y1="452" x2="2788" y2="452"/><line class="cls-3" y1="456" x2="2788" y2="456"/><line class="cls-3" y1="460" x2="2788" y2="460"/><line class="cls-3" y1="464" x2="2788" y2="464"/><line class="cls-3" y1="468" x2="2788" y2="468"/><line class="cls-3" y1="472" x2="2788" y2="472"/><line class="cls-3" y1="476" x2="2788" y2="476"/><line class="cls-3" y1="480" x2="2788" y2="480"/><line class="cls-3" y1="484" x2="2788" y2="484"/><line class="cls-3" y1="488" x2="2788" y2="488"/><line class="cls-3" y1="492" x2="2788" y2="492"/><line class="cls-3" y1="496" x2="2788" y2="496"/><line class="cls-3" y1="500" x2="2788" y2="500"/><line class="cls-3" y1="504" x2="2788" y2="504"/><line class="cls-3" y1="508" x2="2788" y2="508"/><line class="cls-3" y1="512" x2="2788" y2="512"/><line class="cls-3" y1="516" x2="2788" y2="516"/><line class="cls-3" y1="520" x2="2788" y2="520"/><line class="cls-3" y1="524" x2="2788" y2="524"/><line class="cls-3" y1="528" x2="2788" y2="528"/><line class="cls-3" y1="532" x2="2788" y2="532"/><line class="cls-3" y1="536" x2="2788" y2="536"/><line class="cls-3" y1="540" x2="2788" y2="540"/><line class="cls-3" y1="544" x2="2788" y2="544"/><line class="cls-3" y1="548" x2="2788" y2="548"/><line class="cls-3" y1="552" x2="2788" y2="552"/><line class="cls-3" y1="556" x2="2788" y2="556"/><line class="cls-3" y1="560" x2="2788" y2="560"/><line class="cls-3" y1="564" x2="2788" y2="564"/><line class="cls-3" y1="568" x2="2788" y2="568"/><line class="cls-3" y1="572" x2="2788" y2="572"/><line class="cls-3" y1="576" x2="2788" y2="576"/><line class="cls-3" y1="580" x2="2788" y2="580"/><line class="cls-3" y1="584" x2="2788" y2="584"/><line class="cls-3" y1="588" x2="2788" y2="588"/><line class="cls-3" y1="592" x2="2788" y2="592"/><line class="cls-3" y1="596" x2="2788" y2="596"/><line class="cls-3" y1="600" x2="2788" y2="600"/><line class="cls-3" y1="604" x2="2788" y2="604"/><line class="cls-3" y1="608" x2="2788" y2="608"/><line class="cls-3" y1="612" x2="2788" y2="612"/><line class="cls-3" y1="616" x2="2788" y2="616"/><line class="cls-3" y1="620" x2="2788" y2="620"/><line class="cls-3" y1="624" x2="2788" y2="624"/><line class="cls-3" y1="628" x2="2788" y2="628"/><line class="cls-3" y1="632" x2="2788" y2="632"/><line class="cls-3" y1="636" x2="2788" y2="636"/><line class="cls-3" y1="640" x2="2788" y2="640"/><line class="cls-3" y1="644" x2="2788" y2="644"/><line class="cls-3" y1="648" x2="2788" y2="648"/><line class="cls-3" y1="652" x2="2788" y2="652"/><line class="cls-3" y1="656" x2="2788" y2="656"/><line class="cls-3" y1="660" x2="2788" y2="660"/><line class="cls-3" y1="664" x2="2788" y2="664"/><line class="cls-3" y1="668" x2="2788" y2="668"/><line class="cls-3" y1="672" x2="2788" y2="672"/><line class="cls-3" y1="676" x2="2788" y2="676"/><line class="cls-3" y1="680" x2="2788" y2="680"/><line class="cls-3" y1="684" x2="2788" y2="684"/><line class="cls-3" y1="688" x2="2788" y2="688"/><line class="cls-3" y1="692" x2="2788" y2="692"/><line class="cls-3" y1="696" x2="2788" y2="696"/><line class="cls-3" y1="700" x2="2788" y2="700"/><line class="cls-3" y1="704" x2="2788" y2="704"/><line class="cls-3" y1="708" x2="2788" y2="708"/><line class="cls-3" y1="712" x2="2788" y2="712"/><line class="cls-3" y1="716" x2="2788" y2="716"/><line class="cls-3" y1="720" x2="2788" y2="720"/><line class="cls-3" y1="724" x2="2788" y2="724"/><line class="cls-3" y1="728" x2="2788" y2="728"/><line class="cls-3" y1="732" x2="2788" y2="732"/><line class="cls-3" y1="736" x2="2788" y2="736"/><line class="cls-3" y1="740" x2="2788" y2="740"/><line class="cls-3" y1="744" x2="2788" y2="744"/><line class="cls-3" y1="748" x2="2788" y2="748"/><line class="cls-3" y1="752" x2="2788" y2="752"/><line class="cls-3" y1="756" x2="2788" y2="756"/><line class="cls-3" y1="760" x2="2788" y2="760"/><line class="cls-3" y1="764" x2="2788" y2="764"/><line class="cls-3" y1="768" x2="2788" y2="768"/><line class="cls-3" y1="772" x2="2788" y2="772"/><line class="cls-3" y1="776" x2="2788" y2="776"/><line class="cls-3" y1="780" x2="2788" y2="780"/><line class="cls-3" y1="784" x2="2788" y2="784"/><line class="cls-3" y1="788" x2="2788" y2="788"/><line class="cls-3" y1="792" x2="2788" y2="792"/><line class="cls-3" y1="796" x2="2788" y2="796"/><line class="cls-3" y1="800" x2="2788" y2="800"/><line class="cls-3" y1="804" x2="2788" y2="804"/><line class="cls-3" y1="808" x2="2788" y2="808"/><line class="cls-3" y1="812" x2="2788" y2="812"/><line class="cls-3" y1="816" x2="2788" y2="816"/><line class="cls-3" y1="820" x2="2788" y2="820"/><line class="cls-3" y1="824" x2="2788" y2="824"/><line class="cls-3" y1="828" x2="2788" y2="828"/><line class="cls-3" y1="832" x2="2788" y2="832"/><line class="cls-3" y1="836" x2="2788" y2="836"/><line class="cls-3" y1="840" x2="2788" y2="840"/><line class="cls-3" y1="844" x2="2788" y2="844"/><line class="cls-3" y1="848" x2="2788" y2="848"/><line class="cls-3" y1="852" x2="2788" y2="852"/><line class="cls-3" y1="856" x2="2788" y2="856"/><line class="cls-3" y1="860" x2="2788" y2="860"/><line class="cls-3" y1="864" x2="2788" y2="864"/><line class="cls-3" y1="868" x2="2788" y2="868"/><line class="cls-3" y1="872" x2="2788" y2="872"/><line class="cls-3" y1="876" x2="2788" y2="876"/><line class="cls-3" y1="880" x2="2788" y2="880"/><line class="cls-3" y1="884" x2="2788" y2="884"/><line class="cls-3" y1="888" x2="2788" y2="888"/><line class="cls-3" y1="892" x2="2788" y2="892"/><line class="cls-3" y1="896" x2="2788" y2="896"/><line class="cls-3" y1="900" x2="2788" y2="900"/><line class="cls-3" y1="904" x2="2788" y2="904"/><line class="cls-3" y1="908" x2="2788" y2="908"/><line class="cls-3" y1="912" x2="2788" y2="912"/><line class="cls-3" y1="916" x2="2788" y2="916"/><line class="cls-3" y1="920" x2="2788" y2="920"/><line class="cls-3" y1="924" x2="2788" y2="924"/><line class="cls-3" y1="928" x2="2788" y2="928"/><line class="cls-3" y1="932" x2="2788" y2="932"/><line class="cls-3" y1="936" x2="2788" y2="936"/><line class="cls-3" y1="940" x2="2788" y2="940"/><line class="cls-3" y1="944" x2="2788" y2="944"/><line class="cls-3" y1="948" x2="2788" y2="948"/><line class="cls-3" y1="952" x2="2788" y2="952"/><line class="cls-3" y1="956" x2="2788" y2="956"/><line class="cls-3" y1="960" x2="2788" y2="960"/><line class="cls-3" y1="964" x2="2788" y2="964"/><line class="cls-3" y1="968" x2="2788" y2="968"/><line class="cls-3" y1="972" x2="2788" y2="972"/><line class="cls-3" y1="976" x2="2788" y2="976"/><line class="cls-3" y1="980" x2="2788" y2="980"/><line class="cls-3" y1="984" x2="2788" y2="984"/><line class="cls-3" y1="988" x2="2788" y2="988"/><line class="cls-3" y1="992" x2="2788" y2="992"/><line class="cls-3" y1="996" x2="2788" y2="996"/><line class="cls-3" y1="1000" x2="2788" y2="1000"/><line class="cls-3" y1="1004" x2="2788" y2="1004"/><line class="cls-3" y1="1008" x2="2788" y2="1008"/><line class="cls-3" y1="1012" x2="2788" y2="1012"/><line class="cls-3" y1="1016" x2="2788" y2="1016"/><line class="cls-3" y1="1020" x2="2788" y2="1020"/><line class="cls-3" y1="1024" x2="2788" y2="1024"/><line class="cls-3" y1="1028" x2="2788" y2="1028"/><line class="cls-3" y1="1032" x2="2788" y2="1032"/><line class="cls-3" y1="1036" x2="2788" y2="1036"/><line class="cls-3" y1="1040" x2="2788" y2="1040"/><line class="cls-3" y1="1044" x2="2788" y2="1044"/><line class="cls-3" y1="1048" x2="2788" y2="1048"/><line class="cls-3" y1="1052" x2="2788" y2="1052"/><line class="cls-3" y1="1056" x2="2788" y2="1056"/><line class="cls-3" y1="1060" x2="2788" y2="1060"/><line class="cls-3" y1="1064" x2="2788" y2="1064"/><line class="cls-3" y1="1068" x2="2788" y2="1068"/><line class="cls-3" y1="1072" x2="2788" y2="1072"/><line class="cls-3" y1="1076" x2="2788" y2="1076"/><line class="cls-3" y1="1080" x2="2788" y2="1080"/><line class="cls-3" y1="1084" x2="2788" y2="1084"/><line class="cls-3" y1="1088" x2="2788" y2="1088"/><line class="cls-3" y1="1092" x2="2788" y2="1092"/><line class="cls-3" y1="1096" x2="2788" y2="1096"/><line class="cls-3" y1="1100" x2="2788" y2="1100"/><line class="cls-3" y1="1104" x2="2788" y2="1104"/><line class="cls-3" y1="1108" x2="2788" y2="1108"/><line class="cls-3" y1="1112" x2="2788" y2="1112"/><line class="cls-3" y1="1116" x2="2788" y2="1116"/><line class="cls-3" y1="1120" x2="2788" y2="1120"/><line class="cls-3" y1="1124" x2="2788" y2="1124"/><line class="cls-3" y1="1128" x2="2788" y2="1128"/><line class="cls-3" y1="1132" x2="2788" y2="1132"/><line class="cls-3" y1="1136" x2="2788" y2="1136"/><line class="cls-3" y1="1140" x2="2788" y2="1140"/><line class="cls-3" y1="1144" x2="2788" y2="1144"/><line class="cls-3" y1="1148" x2="2788" y2="1148"/><line class="cls-3" y1="1152" x2="2788" y2="1152"/><line class="cls-3" y1="1156" x2="2788" y2="1156"/><line class="cls-3" y1="1160" x2="2788" y2="1160"/><line class="cls-3" y1="1164" x2="2788" y2="1164"/><line class="cls-3" y1="1168" x2="2788" y2="1168"/><line class="cls-3" y1="1172" x2="2788" y2="1172"/><line class="cls-3" y1="1176" x2="2788" y2="1176"/><line class="cls-3" y1="1180" x2="2788" y2="1180"/><line class="cls-3" y1="1184" x2="2788" y2="1184"/><line class="cls-3" y1="1188" x2="2788" y2="1188"/><line class="cls-3" y1="1192" x2="2788" y2="1192"/><line class="cls-3" y1="1196" x2="2788" y2="1196"/><line class="cls-3" y1="1200" x2="2788" y2="1200"/><line class="cls-3" y1="1204" x2="2788" y2="1204"/><line class="cls-3" y1="1208" x2="2788" y2="1208"/><line class="cls-3" y1="1212" x2="2788" y2="1212"/><line class="cls-3" y1="1216" x2="2788" y2="1216"/><line class="cls-3" y1="1220" x2="2788" y2="1220"/><line class="cls-3" y1="1224" x2="2788" y2="1224"/><line class="cls-3" y1="1228" x2="2788" y2="1228"/><line class="cls-3" y1="1232" x2="2788" y2="1232"/><line class="cls-3" y1="1236" x2="2788" y2="1236"/><line class="cls-3" y1="1240" x2="2788" y2="1240"/><line class="cls-3" y1="1244" x2="2788" y2="1244"/><line class="cls-3" y1="1248" x2="2788" y2="1248"/><line class="cls-3" y1="1252" x2="2788" y2="1252"/><line class="cls-3" y1="1256" x2="2788" y2="1256"/><line class="cls-3" y1="1260" x2="2788" y2="1260"/><line class="cls-3" y1="1264" x2="2788" y2="1264"/><line class="cls-3" y1="1268" x2="2788" y2="1268"/><line class="cls-3" y1="1272" x2="2788" y2="1272"/><line class="cls-3" y1="1276" x2="2788" y2="1276"/><line class="cls-3" y1="1280" x2="2788" y2="1280"/><line class="cls-3" y1="1284" x2="2788" y2="1284"/><line class="cls-3" y1="1288" x2="2788" y2="1288"/><line class="cls-3" y1="1292" x2="2788" y2="1292"/><line class="cls-3" y1="1296" x2="2788" y2="1296"/><line class="cls-3" y1="1300" x2="2788" y2="1300"/><line class="cls-3" y1="1304" x2="2788" y2="1304"/><line class="cls-3" y1="1308" x2="2788" y2="1308"/><line class="cls-3" y1="1312" x2="2788" y2="1312"/><line class="cls-3" y1="1316" x2="2788" y2="1316"/><line class="cls-3" y1="1320" x2="2788" y2="1320"/><line class="cls-3" y1="1324" x2="2788" y2="1324"/><line class="cls-3" y1="1328" x2="2788" y2="1328"/><line class="cls-3" y1="1332" x2="2788" y2="1332"/><line class="cls-3" y1="1336" x2="2788" y2="1336"/><line class="cls-3" y1="1340" x2="2788" y2="1340"/><line class="cls-3" y1="1344" x2="2788" y2="1344"/><line class="cls-3" y1="1348" x2="2788" y2="1348"/><line class="cls-3" y1="1352" x2="2788" y2="1352"/><line class="cls-3" y1="1356" x2="2788" y2="1356"/><line class="cls-3" y1="1360" x2="2788" y2="1360"/><line class="cls-3" y1="1364" x2="2788" y2="1364"/><line class="cls-3" y1="1368" x2="2788" y2="1368"/><line class="cls-3" y1="1372" x2="2788" y2="1372"/><line class="cls-3" y1="1376" x2="2788" y2="1376"/><line class="cls-3" y1="1380" x2="2788" y2="1380"/><line class="cls-3" y1="1384" x2="2788" y2="1384"/><line class="cls-3" y1="1388" x2="2788" y2="1388"/><line class="cls-3" y1="1392" x2="2788" y2="1392"/><line class="cls-3" y1="1396" x2="2788" y2="1396"/><line class="cls-3" y1="1400" x2="2788" y2="1400"/><line class="cls-3" y1="1404" x2="2788" y2="1404"/><line class="cls-3" y1="1408" x2="2788" y2="1408"/><line class="cls-3" y1="1412" x2="2788" y2="1412"/><line class="cls-3" y1="1416" x2="2788" y2="1416"/><line class="cls-3" y1="1420" x2="2788" y2="1420"/><line class="cls-3" y1="1424" x2="2788" y2="1424"/><line class="cls-3" y1="1428" x2="2788" y2="1428"/><line class="cls-3" y1="1432" x2="2788" y2="1432"/><line class="cls-3" y1="1436" x2="2788" y2="1436"/><line class="cls-3" y1="1440" x2="2788" y2="1440"/><line class="cls-3" y1="1444" x2="2788" y2="1444"/><line class="cls-3" y1="1448" x2="2788" y2="1448"/><line class="cls-3" y1="1452" x2="2788" y2="1452"/><line class="cls-3" y1="1456" x2="2788" y2="1456"/><line class="cls-3" y1="1460" x2="2788" y2="1460"/><line class="cls-3" y1="1464" x2="2788" y2="1464"/><line class="cls-3" y1="1468" x2="2788" y2="1468"/><line class="cls-3" y1="1472" x2="2788" y2="1472"/><line class="cls-3" y1="1476" x2="2788" y2="1476"/><line class="cls-3" y1="1480" x2="2788" y2="1480"/><line class="cls-3" y1="1484" x2="2788" y2="1484"/><line class="cls-3" y1="1488" x2="2788" y2="1488"/><line class="cls-3" y1="1492" x2="2788" y2="1492"/><line class="cls-3" y1="1496" x2="2788" y2="1496"/><line class="cls-3" y1="1500" x2="2788" y2="1500"/><line class="cls-3" y1="1504" x2="2788" y2="1504"/><line class="cls-3" y1="1508" x2="2788" y2="1508"/><line class="cls-3" y1="1512" x2="2788" y2="1512"/><line class="cls-3" y1="1516" x2="2788" y2="1516"/><line class="cls-3" y1="1520" x2="2788" y2="1520"/><line class="cls-3" y1="1524" x2="2788" y2="1524"/><line class="cls-3" y1="1528" x2="2788" y2="1528"/><line class="cls-3" y1="1532" x2="2788" y2="1532"/><line class="cls-3" y1="1536" x2="2788" y2="1536"/><line class="cls-3" y1="1540" x2="2788" y2="1540"/><line class="cls-3" y1="1544" x2="2788" y2="1544"/><line class="cls-3" y1="1548" x2="2788" y2="1548"/><line class="cls-3" y1="1552" x2="2788" y2="1552"/><line class="cls-3" y1="1556" x2="2788" y2="1556"/><line class="cls-3" y1="1560" x2="2788" y2="1560"/><line class="cls-3" y1="1564" x2="2788" y2="1564"/><line class="cls-3" y1="1568" x2="2788" y2="1568"/><line class="cls-3" y1="1572" x2="2788" y2="1572"/><line class="cls-3" y1="1576" x2="2788" y2="1576"/><line class="cls-3" y1="1580" x2="2788" y2="1580"/><line class="cls-3" y1="1584" x2="2788" y2="1584"/><line class="cls-3" y1="1588" x2="2788" y2="1588"/><line class="cls-3" y1="1592" x2="2788" y2="1592"/><line class="cls-3" y1="1596" x2="2788" y2="1596"/><line class="cls-3" y1="1600" x2="2788" y2="1600"/><line class="cls-3" y1="1604" x2="2788" y2="1604"/><line class="cls-3" y1="1608" x2="2788" y2="1608"/><line class="cls-3" y1="1612" x2="2788" y2="1612"/><line class="cls-3" y1="1616" x2="2788" y2="1616"/><line class="cls-3" y1="1620" x2="2788" y2="1620"/><line class="cls-3" y1="1624" x2="2788" y2="1624"/><line class="cls-3" y1="1628" x2="2788" y2="1628"/><line class="cls-3" y1="1632" x2="2788" y2="1632"/><line class="cls-3" y1="1636" x2="2788" y2="1636"/><line class="cls-3" y1="1640" x2="2788" y2="1640"/><line class="cls-3" y1="1644" x2="2788" y2="1644"/><line class="cls-3" y1="1648" x2="2788" y2="1648"/><line class="cls-3" y1="1652" x2="2788" y2="1652"/><line class="cls-3" y1="1656" x2="2788" y2="1656"/><line class="cls-3" y1="1660" x2="2788" y2="1660"/><line class="cls-3" y1="1664" x2="2788" y2="1664"/><line class="cls-3" y1="1668" x2="2788" y2="1668"/><line class="cls-3" y1="1672" x2="2788" y2="1672"/><line class="cls-3" y1="1676" x2="2788" y2="1676"/><line class="cls-3" y1="1680" x2="2788" y2="1680"/><line class="cls-3" y1="1684" x2="2788" y2="1684"/><line class="cls-3" x1="-275.86" y1="31.34" x2="2786.97" y2="-422.04"/><line class="cls-3" x1="-275.27" y1="35.29" x2="2787.56" y2="-418.08"/><line class="cls-3" x1="-274.69" y1="39.25" x2="2788.14" y2="-414.13"/><line class="cls-3" x1="-274.1" y1="43.21" x2="2788.73" y2="-410.17"/><line class="cls-3" x1="-273.52" y1="47.16" x2="2789.31" y2="-406.21"/><line class="cls-3" x1="-272.93" y1="51.12" x2="2789.9" y2="-402.26"/><line class="cls-3" x1="-272.35" y1="55.08" x2="2790.48" y2="-398.3"/><line class="cls-3" x1="-271.76" y1="59.03" x2="2791.07" y2="-394.34"/><line class="cls-3" x1="-271.17" y1="62.99" x2="2791.66" y2="-390.39"/><line class="cls-3" x1="-270.59" y1="66.95" x2="2792.24" y2="-386.43"/><line class="cls-3" x1="-270" y1="70.9" x2="2792.83" y2="-382.47"/><line class="cls-3" x1="-269.42" y1="74.86" x2="2793.41" y2="-378.52"/><line class="cls-3" x1="-268.83" y1="78.82" x2="2794" y2="-374.56"/><line class="cls-3" x1="-268.25" y1="82.77" x2="2794.58" y2="-370.6"/><line class="cls-3" x1="-267.66" y1="86.73" x2="2795.17" y2="-366.65"/><line class="cls-3" x1="-267.07" y1="90.68" x2="2795.76" y2="-362.69"/><line class="cls-3" x1="-266.49" y1="94.64" x2="2796.34" y2="-358.73"/><line class="cls-3" x1="-265.9" y1="98.6" x2="2796.93" y2="-354.78"/><line class="cls-3" x1="-265.32" y1="102.55" x2="2797.51" y2="-350.82"/><line class="cls-3" x1="-264.73" y1="106.51" x2="2798.1" y2="-346.86"/><line class="cls-3" x1="-264.15" y1="110.47" x2="2798.68" y2="-342.91"/><line class="cls-3" x1="-263.56" y1="114.42" x2="2799.27" y2="-338.95"/><line class="cls-3" x1="-262.97" y1="118.38" x2="2799.85" y2="-334.99"/><line class="cls-3" x1="-262.39" y1="122.34" x2="2800.44" y2="-331.04"/><line class="cls-3" x1="-261.8" y1="126.29" x2="2801.03" y2="-327.08"/><line class="cls-3" x1="-261.22" y1="130.25" x2="2801.61" y2="-323.13"/><line class="cls-3" x1="-260.63" y1="134.21" x2="2802.2" y2="-319.17"/><line class="cls-3" x1="-260.05" y1="138.16" x2="2802.78" y2="-315.21"/><line class="cls-3" x1="-259.46" y1="142.12" x2="2803.37" y2="-311.26"/><line class="cls-3" x1="-258.88" y1="146.08" x2="2803.95" y2="-307.3"/><line class="cls-3" x1="-258.29" y1="150.03" x2="2804.54" y2="-303.34"/><line class="cls-3" x1="-257.7" y1="153.99" x2="2805.13" y2="-299.39"/><line class="cls-3" x1="-257.12" y1="157.95" x2="2805.71" y2="-295.43"/><line class="cls-3" x1="-256.53" y1="161.9" x2="2806.3" y2="-291.47"/><line class="cls-3" x1="-255.95" y1="165.86" x2="2806.88" y2="-287.52"/><line class="cls-3" x1="-255.36" y1="169.82" x2="2807.47" y2="-283.56"/><line class="cls-3" x1="-254.78" y1="173.77" x2="2808.05" y2="-279.6"/><line class="cls-3" x1="-254.19" y1="177.73" x2="2808.64" y2="-275.65"/><line class="cls-3" x1="-253.6" y1="181.69" x2="2809.23" y2="-271.69"/><line class="cls-3" x1="-253.02" y1="185.64" x2="2809.81" y2="-267.73"/><line class="cls-3" x1="-252.43" y1="189.6" x2="2810.4" y2="-263.78"/><line class="cls-3" x1="-251.85" y1="193.56" x2="2810.98" y2="-259.82"/><line class="cls-3" x1="-251.26" y1="197.51" x2="2811.57" y2="-255.86"/><line class="cls-3" x1="-250.68" y1="201.47" x2="2812.15" y2="-251.91"/><line class="cls-3" x1="-250.09" y1="205.43" x2="2812.74" y2="-247.95"/><line class="cls-3" x1="-249.5" y1="209.38" x2="2813.33" y2="-243.99"/><line class="cls-3" x1="-248.92" y1="213.34" x2="2813.91" y2="-240.04"/><line class="cls-3" x1="-248.33" y1="217.3" x2="2814.5" y2="-236.08"/><line class="cls-3" x1="-247.75" y1="221.25" x2="2815.08" y2="-232.12"/><line class="cls-3" x1="-247.16" y1="225.21" x2="2815.67" y2="-228.17"/><line class="cls-3" x1="-246.58" y1="229.17" x2="2816.25" y2="-224.21"/><line class="cls-3" x1="-245.99" y1="233.12" x2="2816.84" y2="-220.25"/><line class="cls-3" x1="-245.4" y1="237.08" x2="2817.43" y2="-216.3"/><line class="cls-3" x1="-244.82" y1="241.04" x2="2818.01" y2="-212.34"/><line class="cls-3" x1="-244.23" y1="244.99" x2="2818.6" y2="-208.38"/><line class="cls-3" x1="-243.65" y1="248.95" x2="2819.18" y2="-204.43"/><line class="cls-3" x1="-243.06" y1="252.91" x2="2819.77" y2="-200.47"/><line class="cls-3" x1="-242.48" y1="256.86" x2="2820.35" y2="-196.51"/><line class="cls-3" x1="-241.89" y1="260.82" x2="2820.94" y2="-192.56"/><line class="cls-3" x1="-241.3" y1="264.78" x2="2821.52" y2="-188.6"/><line class="cls-3" x1="-240.72" y1="268.73" x2="2822.11" y2="-184.64"/><line class="cls-3" x1="-240.13" y1="272.69" x2="2822.7" y2="-180.69"/><line class="cls-3" x1="-239.55" y1="276.65" x2="2823.28" y2="-176.73"/><line class="cls-3" x1="-238.96" y1="280.6" x2="2823.87" y2="-172.77"/><line class="cls-3" x1="-238.38" y1="284.56" x2="2824.45" y2="-168.82"/><line class="cls-3" x1="-237.79" y1="288.52" x2="2825.04" y2="-164.86"/><line class="cls-3" x1="-237.21" y1="292.47" x2="2825.62" y2="-160.9"/><line class="cls-3" x1="-236.62" y1="296.43" x2="2826.21" y2="-156.95"/><line class="cls-3" x1="-236.03" y1="300.39" x2="2826.8" y2="-152.99"/><line class="cls-3" x1="-235.45" y1="304.34" x2="2827.38" y2="-149.03"/><line class="cls-3" x1="-234.86" y1="308.3" x2="2827.97" y2="-145.08"/><line class="cls-3" x1="-234.28" y1="312.26" x2="2828.55" y2="-141.12"/><line class="cls-3" x1="-233.69" y1="316.21" x2="2829.14" y2="-137.16"/><line class="cls-3" x1="-233.11" y1="320.17" x2="2829.72" y2="-133.21"/><line class="cls-3" x1="-232.52" y1="324.13" x2="2830.31" y2="-129.25"/><line class="cls-3" x1="-231.93" y1="328.08" x2="2830.9" y2="-125.29"/><line class="cls-3" x1="-231.35" y1="332.04" x2="2831.48" y2="-121.34"/><line class="cls-3" x1="-230.76" y1="335.99" x2="2832.07" y2="-117.38"/><line class="cls-3" x1="-230.18" y1="339.95" x2="2832.65" y2="-113.42"/><line class="cls-3" x1="-229.59" y1="343.91" x2="2833.24" y2="-109.47"/><line class="cls-3" x1="-229.01" y1="347.86" x2="2833.82" y2="-105.51"/><line class="cls-3" x1="-228.42" y1="351.82" x2="2834.41" y2="-101.55"/><line class="cls-3" x1="-227.83" y1="355.78" x2="2835" y2="-97.6"/><line class="cls-3" x1="-227.25" y1="359.73" x2="2835.58" y2="-93.64"/><line class="cls-3" x1="-226.66" y1="363.69" x2="2836.17" y2="-89.68"/><line class="cls-3" x1="-226.08" y1="367.65" x2="2836.75" y2="-85.73"/><line class="cls-3" x1="-225.49" y1="371.6" x2="2837.34" y2="-81.77"/><line class="cls-3" x1="-224.91" y1="375.56" x2="2837.92" y2="-77.82"/><line class="cls-3" x1="-224.32" y1="379.52" x2="2838.51" y2="-73.86"/><line class="cls-3" x1="-223.73" y1="383.47" x2="2839.1" y2="-69.9"/><line class="cls-3" x1="-223.15" y1="387.43" x2="2839.68" y2="-65.95"/><line class="cls-3" x1="-222.56" y1="391.39" x2="2840.27" y2="-61.99"/><line class="cls-3" x1="-221.98" y1="395.34" x2="2840.85" y2="-58.03"/><line class="cls-3" x1="-221.39" y1="399.3" x2="2841.44" y2="-54.08"/><line class="cls-3" x1="-220.81" y1="403.26" x2="2842.02" y2="-50.12"/><line class="cls-3" x1="-220.22" y1="407.21" x2="2842.61" y2="-46.16"/><line class="cls-3" x1="-219.63" y1="411.17" x2="2843.2" y2="-42.21"/><line class="cls-3" x1="-219.05" y1="415.13" x2="2843.78" y2="-38.25"/><line class="cls-3" x1="-218.46" y1="419.08" x2="2844.37" y2="-34.29"/><line class="cls-3" x1="-217.88" y1="423.04" x2="2844.95" y2="-30.34"/><line class="cls-3" x1="-217.29" y1="427" x2="2845.54" y2="-26.38"/><line class="cls-3" x1="-216.71" y1="430.95" x2="2846.12" y2="-22.42"/><line class="cls-3" x1="-216.12" y1="434.91" x2="2846.71" y2="-18.47"/><line class="cls-3" x1="-215.53" y1="438.87" x2="2847.29" y2="-14.51"/><line class="cls-3" x1="-214.95" y1="442.82" x2="2847.88" y2="-10.55"/><line class="cls-3" x1="-214.36" y1="446.78" x2="2848.47" y2="-6.6"/><line class="cls-3" x1="-213.78" y1="450.74" x2="2849.05" y2="-2.64"/><line class="cls-3" x1="-213.19" y1="454.69" x2="2849.64" y2="1.32"/><line class="cls-3" x1="-212.61" y1="458.65" x2="2850.22" y2="5.27"/><line class="cls-3" x1="-212.02" y1="462.61" x2="2850.81" y2="9.23"/><line class="cls-3" x1="-211.44" y1="466.56" x2="2851.39" y2="13.19"/><line class="cls-3" x1="-210.85" y1="470.52" x2="2851.98" y2="17.14"/><line class="cls-3" x1="-210.26" y1="474.48" x2="2852.57" y2="21.1"/><line class="cls-3" x1="-209.68" y1="478.43" x2="2853.15" y2="25.06"/><line class="cls-3" x1="-209.09" y1="482.39" x2="2853.74" y2="29.01"/><line class="cls-3" x1="-208.51" y1="486.35" x2="2854.32" y2="32.97"/><line class="cls-3" x1="-207.92" y1="490.3" x2="2854.91" y2="36.93"/><line class="cls-3" x1="-207.34" y1="494.26" x2="2855.49" y2="40.88"/><line class="cls-3" x1="-206.75" y1="498.22" x2="2856.08" y2="44.84"/><line class="cls-3" x1="-206.16" y1="502.17" x2="2856.67" y2="48.8"/><line class="cls-3" x1="-205.58" y1="506.13" x2="2857.25" y2="52.75"/><line class="cls-3" x1="-204.99" y1="510.09" x2="2857.84" y2="56.71"/><line class="cls-3" x1="-204.41" y1="514.04" x2="2858.42" y2="60.67"/><line class="cls-3" x1="-203.82" y1="518" x2="2859.01" y2="64.62"/><line class="cls-3" x1="-203.24" y1="521.96" x2="2859.59" y2="68.58"/><line class="cls-3" x1="-202.65" y1="525.91" x2="2860.18" y2="72.54"/><line class="cls-3" x1="-202.06" y1="529.87" x2="2860.77" y2="76.49"/><line class="cls-3" x1="-201.48" y1="533.83" x2="2861.35" y2="80.45"/><line class="cls-3" x1="-200.89" y1="537.78" x2="2861.94" y2="84.41"/><line class="cls-3" x1="-200.31" y1="541.74" x2="2862.52" y2="88.36"/><line class="cls-3" x1="-199.72" y1="545.7" x2="2863.11" y2="92.32"/><line class="cls-3" x1="-199.14" y1="549.65" x2="2863.69" y2="96.28"/><line class="cls-3" x1="-198.55" y1="553.61" x2="2864.28" y2="100.23"/><line class="cls-3" x1="-197.96" y1="557.57" x2="2864.87" y2="104.19"/><line class="cls-3" x1="-197.38" y1="561.52" x2="2865.45" y2="108.15"/><line class="cls-3" x1="-196.79" y1="565.48" x2="2866.04" y2="112.1"/><line class="cls-3" x1="-196.21" y1="569.44" x2="2866.62" y2="116.06"/><line class="cls-3" x1="-195.62" y1="573.39" x2="2867.21" y2="120.02"/><line class="cls-3" x1="-195.04" y1="577.35" x2="2867.79" y2="123.97"/><line class="cls-3" x1="-194.45" y1="581.3" x2="2868.38" y2="127.93"/><line class="cls-3" x1="-193.86" y1="585.26" x2="2868.96" y2="131.89"/><line class="cls-3" x1="-193.28" y1="589.22" x2="2869.55" y2="135.84"/><line class="cls-3" x1="-192.69" y1="593.17" x2="2870.14" y2="139.8"/><line class="cls-3" x1="-192.11" y1="597.13" x2="2870.72" y2="143.76"/><line class="cls-3" x1="-191.52" y1="601.09" x2="2871.31" y2="147.71"/><line class="cls-3" x1="-190.94" y1="605.04" x2="2871.89" y2="151.67"/><line class="cls-3" x1="-190.35" y1="609" x2="2872.48" y2="155.62"/><line class="cls-3" x1="-189.77" y1="612.96" x2="2873.06" y2="159.58"/><line class="cls-3" x1="-189.18" y1="616.91" x2="2873.65" y2="163.54"/><line class="cls-3" x1="-188.59" y1="620.87" x2="2874.24" y2="167.49"/><line class="cls-3" x1="-188.01" y1="624.83" x2="2874.82" y2="171.45"/><line class="cls-3" x1="-187.42" y1="628.78" x2="2875.41" y2="175.41"/><line class="cls-3" x1="-186.84" y1="632.74" x2="2875.99" y2="179.36"/><line class="cls-3" x1="-186.25" y1="636.7" x2="2876.58" y2="183.32"/><line class="cls-3" x1="-185.67" y1="640.65" x2="2877.16" y2="187.28"/><line class="cls-3" x1="-185.08" y1="644.61" x2="2877.75" y2="191.23"/><line class="cls-3" x1="-184.49" y1="648.57" x2="2878.34" y2="195.19"/><line class="cls-3" x1="-183.91" y1="652.52" x2="2878.92" y2="199.15"/><line class="cls-3" x1="-183.32" y1="656.48" x2="2879.51" y2="203.1"/><line class="cls-3" x1="-182.74" y1="660.44" x2="2880.09" y2="207.06"/><line class="cls-3" x1="-182.15" y1="664.39" x2="2880.68" y2="211.02"/><line class="cls-3" x1="-181.57" y1="668.35" x2="2881.26" y2="214.97"/><line class="cls-3" x1="-180.98" y1="672.31" x2="2881.85" y2="218.93"/><line class="cls-3" x1="-180.39" y1="676.26" x2="2882.44" y2="222.89"/><line class="cls-3" x1="-179.81" y1="680.22" x2="2883.02" y2="226.84"/><line class="cls-3" x1="-179.22" y1="684.18" x2="2883.61" y2="230.8"/><line class="cls-3" x1="-178.64" y1="688.13" x2="2884.19" y2="234.76"/><line class="cls-3" x1="-178.05" y1="692.09" x2="2884.78" y2="238.71"/><line class="cls-3" x1="-177.47" y1="696.05" x2="2885.36" y2="242.67"/><line class="cls-3" x1="-176.88" y1="700" x2="2885.95" y2="246.63"/><line class="cls-3" x1="-176.29" y1="703.96" x2="2886.54" y2="250.58"/><line class="cls-3" x1="-175.71" y1="707.92" x2="2887.12" y2="254.54"/><line class="cls-3" x1="-175.12" y1="711.87" x2="2887.71" y2="258.5"/><line class="cls-3" x1="-174.54" y1="715.83" x2="2888.29" y2="262.45"/><line class="cls-3" x1="-173.95" y1="719.79" x2="2888.88" y2="266.41"/><line class="cls-3" x1="-173.37" y1="723.74" x2="2889.46" y2="270.37"/><line class="cls-3" x1="-172.78" y1="727.7" x2="2890.05" y2="274.32"/><line class="cls-3" x1="-172.19" y1="731.66" x2="2890.63" y2="278.28"/><line class="cls-3" x1="-171.61" y1="735.61" x2="2891.22" y2="282.24"/><line class="cls-3" x1="-171.02" y1="739.57" x2="2891.81" y2="286.19"/><line class="cls-3" x1="-170.44" y1="743.53" x2="2892.39" y2="290.15"/><line class="cls-3" x1="-169.85" y1="747.48" x2="2892.98" y2="294.11"/><line class="cls-3" x1="-169.27" y1="751.44" x2="2893.56" y2="298.06"/><line class="cls-3" x1="-168.68" y1="755.4" x2="2894.15" y2="302.02"/><line class="cls-3" x1="-168.1" y1="759.35" x2="2894.73" y2="305.98"/><line class="cls-3" x1="-167.51" y1="763.31" x2="2895.32" y2="309.93"/><line class="cls-3" x1="-166.92" y1="767.27" x2="2895.91" y2="313.89"/><line class="cls-3" x1="-166.34" y1="771.22" x2="2896.49" y2="317.85"/><line class="cls-3" x1="-165.75" y1="775.18" x2="2897.08" y2="321.8"/><line class="cls-3" x1="-165.17" y1="779.14" x2="2897.66" y2="325.76"/><line class="cls-3" x1="-164.58" y1="783.09" x2="2898.25" y2="329.72"/><line class="cls-3" x1="-164" y1="787.05" x2="2898.83" y2="333.67"/><line class="cls-3" x1="-163.41" y1="791.01" x2="2899.42" y2="337.63"/><line class="cls-3" x1="-162.82" y1="794.96" x2="2900.01" y2="341.59"/><line class="cls-3" x1="-162.24" y1="798.92" x2="2900.59" y2="345.54"/><line class="cls-3" x1="-161.65" y1="802.88" x2="2901.18" y2="349.5"/><line class="cls-3" x1="-161.07" y1="806.83" x2="2901.76" y2="353.46"/><line class="cls-3" x1="-160.48" y1="810.79" x2="2902.35" y2="357.41"/><line class="cls-3" x1="-159.9" y1="814.74" x2="2902.93" y2="361.37"/><line class="cls-3" x1="-159.31" y1="818.7" x2="2903.52" y2="365.33"/><line class="cls-3" x1="-158.72" y1="822.66" x2="2904.11" y2="369.28"/><line class="cls-3" x1="-158.14" y1="826.61" x2="2904.69" y2="373.24"/><line class="cls-3" x1="-157.55" y1="830.57" x2="2905.28" y2="377.2"/><line class="cls-3" x1="-156.97" y1="834.53" x2="2905.86" y2="381.15"/><line class="cls-3" x1="-156.38" y1="838.48" x2="2906.45" y2="385.11"/><line class="cls-3" x1="-155.8" y1="842.44" x2="2907.03" y2="389.07"/><line class="cls-3" x1="-155.21" y1="846.4" x2="2907.62" y2="393.02"/><line class="cls-3" x1="-154.62" y1="850.35" x2="2908.21" y2="396.98"/><line class="cls-3" x1="-154.04" y1="854.31" x2="2908.79" y2="400.93"/><line class="cls-3" x1="-153.45" y1="858.27" x2="2909.38" y2="404.89"/><line class="cls-3" x1="-152.87" y1="862.22" x2="2909.96" y2="408.85"/><line class="cls-3" x1="-152.28" y1="866.18" x2="2910.55" y2="412.8"/><line class="cls-3" x1="-151.7" y1="870.14" x2="2911.13" y2="416.76"/><line class="cls-3" x1="-151.11" y1="874.09" x2="2911.72" y2="420.72"/><line class="cls-3" x1="-150.52" y1="878.05" x2="2912.31" y2="424.67"/><line class="cls-3" x1="-149.94" y1="882.01" x2="2912.89" y2="428.63"/><line class="cls-3" x1="-149.35" y1="885.96" x2="2913.48" y2="432.59"/><line class="cls-3" x1="-148.77" y1="889.92" x2="2914.06" y2="436.54"/><line class="cls-3" x1="-148.18" y1="893.88" x2="2914.65" y2="440.5"/><line class="cls-3" x1="-147.6" y1="897.83" x2="2915.23" y2="444.46"/><line class="cls-3" x1="-147.01" y1="901.79" x2="2915.82" y2="448.41"/><line class="cls-3" x1="-146.42" y1="905.75" x2="2916.4" y2="452.37"/><line class="cls-3" x1="-145.84" y1="909.7" x2="2916.99" y2="456.33"/><line class="cls-3" x1="-145.25" y1="913.66" x2="2917.58" y2="460.28"/><line class="cls-3" x1="-144.67" y1="917.62" x2="2918.16" y2="464.24"/><line class="cls-3" x1="-144.08" y1="921.57" x2="2918.75" y2="468.2"/><line class="cls-3" x1="-143.5" y1="925.53" x2="2919.33" y2="472.15"/><line class="cls-3" x1="-142.91" y1="929.49" x2="2919.92" y2="476.11"/><line class="cls-3" x1="-142.33" y1="933.44" x2="2920.5" y2="480.07"/><line class="cls-3" x1="-141.74" y1="937.4" x2="2921.09" y2="484.02"/><line class="cls-3" x1="-141.15" y1="941.36" x2="2921.68" y2="487.98"/><line class="cls-3" x1="-140.57" y1="945.31" x2="2922.26" y2="491.94"/><line class="cls-3" x1="-139.98" y1="949.27" x2="2922.85" y2="495.89"/><line class="cls-3" x1="-139.4" y1="953.23" x2="2923.43" y2="499.85"/><line class="cls-3" x1="-138.81" y1="957.18" x2="2924.02" y2="503.81"/><line class="cls-3" x1="-138.23" y1="961.14" x2="2924.6" y2="507.76"/><line class="cls-3" x1="-137.64" y1="965.1" x2="2925.19" y2="511.72"/><line class="cls-3" x1="-137.05" y1="969.05" x2="2925.78" y2="515.68"/><line class="cls-3" x1="-136.47" y1="973.01" x2="2926.36" y2="519.63"/><line class="cls-3" x1="-135.88" y1="976.97" x2="2926.95" y2="523.59"/><line class="cls-3" x1="-135.3" y1="980.92" x2="2927.53" y2="527.55"/><line class="cls-3" x1="-134.71" y1="984.88" x2="2928.12" y2="531.5"/><line class="cls-3" x1="-134.13" y1="988.84" x2="2928.7" y2="535.46"/><line class="cls-3" x1="-133.54" y1="992.79" x2="2929.29" y2="539.42"/><line class="cls-3" x1="-132.95" y1="996.75" x2="2929.88" y2="543.37"/><line class="cls-3" x1="-132.37" y1="1000.71" x2="2930.46" y2="547.33"/><line class="cls-3" x1="-131.78" y1="1004.66" x2="2931.05" y2="551.29"/><line class="cls-3" x1="-131.2" y1="1008.62" x2="2931.63" y2="555.24"/><line class="cls-3" x1="-130.61" y1="1012.58" x2="2932.22" y2="559.2"/><line class="cls-3" x1="-130.03" y1="1016.53" x2="2932.8" y2="563.16"/><line class="cls-3" x1="-129.44" y1="1020.49" x2="2933.39" y2="567.11"/><line class="cls-3" x1="-128.85" y1="1024.45" x2="2933.98" y2="571.07"/><line class="cls-3" x1="-128.27" y1="1028.4" x2="2934.56" y2="575.03"/><line class="cls-3" x1="-127.68" y1="1032.36" x2="2935.15" y2="578.98"/><line class="cls-3" x1="-127.1" y1="1036.32" x2="2935.73" y2="582.94"/><line class="cls-3" x1="-126.51" y1="1040.27" x2="2936.32" y2="586.9"/><line class="cls-3" x1="-125.93" y1="1044.23" x2="2936.9" y2="590.85"/><line class="cls-3" x1="-125.34" y1="1048.19" x2="2937.49" y2="594.81"/><line class="cls-3" x1="-124.75" y1="1052.14" x2="2938.07" y2="598.77"/><line class="cls-3" x1="-124.17" y1="1056.1" x2="2938.66" y2="602.72"/><line class="cls-3" x1="-123.58" y1="1060.05" x2="2939.25" y2="606.68"/><line class="cls-3" x1="-123" y1="1064.01" x2="2939.83" y2="610.64"/><line class="cls-3" x1="-122.41" y1="1067.97" x2="2940.42" y2="614.59"/><line class="cls-3" x1="-121.83" y1="1071.92" x2="2941" y2="618.55"/><line class="cls-3" x1="-121.24" y1="1075.88" x2="2941.59" y2="622.51"/><line class="cls-3" x1="-120.66" y1="1079.84" x2="2942.17" y2="626.46"/><line class="cls-3" x1="-120.07" y1="1083.79" x2="2942.76" y2="630.42"/><line class="cls-3" x1="-119.48" y1="1087.75" x2="2943.35" y2="634.38"/><line class="cls-3" x1="-118.9" y1="1091.71" x2="2943.93" y2="638.33"/><line class="cls-3" x1="-118.31" y1="1095.66" x2="2944.52" y2="642.29"/><line class="cls-3" x1="-117.73" y1="1099.62" x2="2945.1" y2="646.24"/><line class="cls-3" x1="-117.14" y1="1103.58" x2="2945.69" y2="650.2"/><line class="cls-3" x1="-116.56" y1="1107.53" x2="2946.27" y2="654.16"/><line class="cls-3" x1="-115.97" y1="1111.49" x2="2946.86" y2="658.11"/><line class="cls-3" x1="-115.38" y1="1115.45" x2="2947.45" y2="662.07"/><line class="cls-3" x1="-114.8" y1="1119.4" x2="2948.03" y2="666.03"/><line class="cls-3" x1="-114.21" y1="1123.36" x2="2948.62" y2="669.98"/><line class="cls-3" x1="-113.63" y1="1127.32" x2="2949.2" y2="673.94"/><line class="cls-3" x1="-113.04" y1="1131.27" x2="2949.79" y2="677.9"/><line class="cls-3" x1="-112.46" y1="1135.23" x2="2950.37" y2="681.85"/><line class="cls-3" x1="-111.87" y1="1139.19" x2="2950.96" y2="685.81"/><line class="cls-3" x1="-111.28" y1="1143.14" x2="2951.55" y2="689.77"/><line class="cls-3" x1="-110.7" y1="1147.1" x2="2952.13" y2="693.72"/><line class="cls-3" x1="-110.11" y1="1151.06" x2="2952.72" y2="697.68"/><line class="cls-3" x1="-109.53" y1="1155.01" x2="2953.3" y2="701.64"/><line class="cls-3" x1="-108.94" y1="1158.97" x2="2953.89" y2="705.59"/><line class="cls-3" x1="-108.36" y1="1162.93" x2="2954.47" y2="709.55"/><line class="cls-3" x1="-107.77" y1="1166.88" x2="2955.06" y2="713.51"/><line class="cls-3" x1="-107.18" y1="1170.84" x2="2955.65" y2="717.46"/><line class="cls-3" x1="-106.6" y1="1174.8" x2="2956.23" y2="721.42"/><line class="cls-3" x1="-106.01" y1="1178.75" x2="2956.82" y2="725.38"/><line class="cls-3" x1="-105.43" y1="1182.71" x2="2957.4" y2="729.33"/><line class="cls-3" x1="-104.84" y1="1186.67" x2="2957.99" y2="733.29"/><line class="cls-3" x1="-104.26" y1="1190.62" x2="2958.57" y2="737.25"/><line class="cls-3" x1="-103.67" y1="1194.58" x2="2959.16" y2="741.2"/><line class="cls-3" x1="-103.08" y1="1198.54" x2="2959.74" y2="745.16"/><line class="cls-3" x1="-102.5" y1="1202.49" x2="2960.33" y2="749.12"/><line class="cls-3" x1="-101.91" y1="1206.45" x2="2960.92" y2="753.07"/><line class="cls-3" x1="-101.33" y1="1210.41" x2="2961.5" y2="757.03"/><line class="cls-3" x1="-100.74" y1="1214.36" x2="2962.09" y2="760.99"/><line class="cls-3" x1="-100.16" y1="1218.32" x2="2962.67" y2="764.94"/><line class="cls-3" x1="-99.57" y1="1222.28" x2="2963.26" y2="768.9"/><line class="cls-3" x1="-98.99" y1="1226.23" x2="2963.84" y2="772.86"/><line class="cls-3" x1="-98.4" y1="1230.19" x2="2964.43" y2="776.81"/><line class="cls-3" x1="-97.81" y1="1234.15" x2="2965.02" y2="780.77"/><line class="cls-3" x1="-97.23" y1="1238.1" x2="2965.6" y2="784.73"/><line class="cls-3" x1="-96.64" y1="1242.06" x2="2966.19" y2="788.68"/><line class="cls-3" x1="-96.06" y1="1246.02" x2="2966.77" y2="792.64"/><line class="cls-3" x1="-95.47" y1="1249.97" x2="2967.36" y2="796.6"/><line class="cls-3" x1="-94.89" y1="1253.93" x2="2967.94" y2="800.55"/><line class="cls-3" x1="-94.3" y1="1257.89" x2="2968.53" y2="804.51"/><line class="cls-3" x1="-93.71" y1="1261.84" x2="2969.12" y2="808.47"/><line class="cls-3" x1="-93.13" y1="1265.8" x2="2969.7" y2="812.42"/><line class="cls-3" x1="-92.54" y1="1269.76" x2="2970.29" y2="816.38"/><line class="cls-3" x1="-91.96" y1="1273.71" x2="2970.87" y2="820.34"/><line class="cls-3" x1="-91.37" y1="1277.67" x2="2971.46" y2="824.29"/><line class="cls-3" x1="-90.79" y1="1281.63" x2="2972.04" y2="828.25"/><line class="cls-3" x1="-90.2" y1="1285.58" x2="2972.63" y2="832.21"/><line class="cls-3" x1="-89.61" y1="1289.54" x2="2973.22" y2="836.16"/><line class="cls-3" x1="-89.03" y1="1293.5" x2="2973.8" y2="840.12"/><line class="cls-3" x1="-88.44" y1="1297.45" x2="2974.39" y2="844.08"/><line class="cls-3" x1="-87.86" y1="1301.41" x2="2974.97" y2="848.03"/><line class="cls-3" x1="-87.27" y1="1305.36" x2="2975.56" y2="851.99"/><line class="cls-3" x1="-86.69" y1="1309.32" x2="2976.14" y2="855.95"/><line class="cls-3" x1="-86.1" y1="1313.28" x2="2976.73" y2="859.9"/><line class="cls-3" x1="-85.51" y1="1317.23" x2="2977.32" y2="863.86"/><line class="cls-3" x1="-84.93" y1="1321.19" x2="2977.9" y2="867.82"/><line class="cls-3" x1="-84.34" y1="1325.15" x2="2978.49" y2="871.77"/><line class="cls-3" x1="-83.76" y1="1329.1" x2="2979.07" y2="875.73"/><line class="cls-3" x1="-83.17" y1="1333.06" x2="2979.66" y2="879.68"/><line class="cls-3" x1="-82.59" y1="1337.02" x2="2980.24" y2="883.64"/><line class="cls-3" x1="-82" y1="1340.97" x2="2980.83" y2="887.6"/><line class="cls-3" x1="-81.41" y1="1344.93" x2="2981.42" y2="891.55"/><line class="cls-3" x1="-80.83" y1="1348.89" x2="2982" y2="895.51"/><line class="cls-3" x1="-80.24" y1="1352.84" x2="2982.59" y2="899.47"/><line class="cls-3" x1="-79.66" y1="1356.8" x2="2983.17" y2="903.42"/><line class="cls-3" x1="-79.07" y1="1360.76" x2="2983.76" y2="907.38"/><line class="cls-3" x1="-78.49" y1="1364.71" x2="2984.34" y2="911.34"/><line class="cls-3" x1="-77.9" y1="1368.67" x2="2984.93" y2="915.29"/><line class="cls-3" x1="-77.31" y1="1372.63" x2="2985.51" y2="919.25"/><line class="cls-3" x1="-76.73" y1="1376.58" x2="2986.1" y2="923.21"/><line class="cls-3" x1="-76.14" y1="1380.54" x2="2986.69" y2="927.16"/><line class="cls-3" x1="-75.56" y1="1384.5" x2="2987.27" y2="931.12"/><line class="cls-3" x1="-74.97" y1="1388.45" x2="2987.86" y2="935.08"/><line class="cls-3" x1="-74.39" y1="1392.41" x2="2988.44" y2="939.03"/><line class="cls-3" x1="-73.8" y1="1396.37" x2="2989.03" y2="942.99"/><line class="cls-3" x1="-73.22" y1="1400.32" x2="2989.61" y2="946.95"/><line class="cls-3" x1="-72.63" y1="1404.28" x2="2990.2" y2="950.9"/><line class="cls-3" x1="-72.04" y1="1408.24" x2="2990.79" y2="954.86"/><line class="cls-3" x1="-71.46" y1="1412.19" x2="2991.37" y2="958.82"/><line class="cls-3" x1="-70.87" y1="1416.15" x2="2991.96" y2="962.77"/><line class="cls-3" x1="-70.29" y1="1420.11" x2="2992.54" y2="966.73"/><line class="cls-3" x1="-69.7" y1="1424.06" x2="2993.13" y2="970.69"/><line class="cls-3" x1="-69.12" y1="1428.02" x2="2993.71" y2="974.64"/><line class="cls-3" x1="-68.53" y1="1431.98" x2="2994.3" y2="978.6"/><line class="cls-3" x1="-67.94" y1="1435.93" x2="2994.89" y2="982.56"/><line class="cls-3" x1="-67.36" y1="1439.89" x2="2995.47" y2="986.51"/><line class="cls-3" x1="-66.77" y1="1443.85" x2="2996.06" y2="990.47"/><line class="cls-3" x1="-66.19" y1="1447.8" x2="2996.64" y2="994.43"/><line class="cls-3" x1="-65.6" y1="1451.76" x2="2997.23" y2="998.38"/><line class="cls-3" x1="-65.02" y1="1455.72" x2="2997.81" y2="1002.34"/><line class="cls-3" x1="-64.43" y1="1459.67" x2="2998.4" y2="1006.3"/><line class="cls-3" x1="-63.84" y1="1463.63" x2="2998.99" y2="1010.25"/><line class="cls-3" x1="-63.26" y1="1467.59" x2="2999.57" y2="1014.21"/><line class="cls-3" x1="-62.67" y1="1471.54" x2="3000.16" y2="1018.17"/><line class="cls-3" x1="-62.09" y1="1475.5" x2="3000.74" y2="1022.12"/><line class="cls-3" x1="-61.5" y1="1479.46" x2="3001.33" y2="1026.08"/><line class="cls-3" x1="-60.92" y1="1483.41" x2="3001.91" y2="1030.04"/><line class="cls-3" x1="-60.33" y1="1487.37" x2="3002.5" y2="1033.99"/><line class="cls-3" x1="-59.74" y1="1491.33" x2="3003.09" y2="1037.95"/><line class="cls-3" x1="-59.16" y1="1495.28" x2="3003.67" y2="1041.91"/><line class="cls-3" x1="-58.57" y1="1499.24" x2="3004.26" y2="1045.86"/><line class="cls-3" x1="-57.99" y1="1503.2" x2="3004.84" y2="1049.82"/><line class="cls-3" x1="-57.4" y1="1507.15" x2="3005.43" y2="1053.78"/><line class="cls-3" x1="-56.82" y1="1511.11" x2="3006.01" y2="1057.73"/><line class="cls-3" x1="-56.23" y1="1515.07" x2="3006.6" y2="1061.69"/><line class="cls-3" x1="-55.64" y1="1519.02" x2="3007.18" y2="1065.65"/><line class="cls-3" x1="-55.06" y1="1522.98" x2="3007.77" y2="1069.6"/><line class="cls-3" x1="-54.47" y1="1526.94" x2="3008.36" y2="1073.56"/><line class="cls-3" x1="-53.89" y1="1530.89" x2="3008.94" y2="1077.52"/><line class="cls-3" x1="-53.3" y1="1534.85" x2="3009.53" y2="1081.47"/><line class="cls-3" x1="-52.72" y1="1538.8" x2="3010.11" y2="1085.43"/><line class="cls-3" x1="-52.13" y1="1542.76" x2="3010.7" y2="1089.39"/><line class="cls-3" x1="-51.55" y1="1546.72" x2="3011.28" y2="1093.34"/><line class="cls-3" x1="-50.96" y1="1550.67" x2="3011.87" y2="1097.3"/><line class="cls-3" x1="-50.37" y1="1554.63" x2="3012.46" y2="1101.26"/><line class="cls-3" x1="-49.79" y1="1558.59" x2="3013.04" y2="1105.21"/><line class="cls-3" x1="-49.2" y1="1562.54" x2="3013.63" y2="1109.17"/><line class="cls-3" x1="-48.62" y1="1566.5" x2="3014.21" y2="1113.13"/><line class="cls-3" x1="-48.03" y1="1570.46" x2="3014.8" y2="1117.08"/><line class="cls-3" x1="-47.45" y1="1574.41" x2="3015.38" y2="1121.04"/><line class="cls-3" x1="-46.86" y1="1578.37" x2="3015.97" y2="1124.99"/><line class="cls-3" x1="-46.27" y1="1582.33" x2="3016.56" y2="1128.95"/><line class="cls-3" x1="-45.69" y1="1586.28" x2="3017.14" y2="1132.91"/><line class="cls-3" x1="-45.1" y1="1590.24" x2="3017.73" y2="1136.86"/><line class="cls-3" x1="-44.52" y1="1594.2" x2="3018.31" y2="1140.82"/><line class="cls-3" x1="-43.93" y1="1598.15" x2="3018.9" y2="1144.78"/><line class="cls-3" x1="-43.35" y1="1602.11" x2="3019.48" y2="1148.73"/><line class="cls-3" x1="-42.76" y1="1606.07" x2="3020.07" y2="1152.69"/><line class="cls-3" x1="-42.17" y1="1610.02" x2="3020.66" y2="1156.65"/><line class="cls-3" x1="-41.59" y1="1613.98" x2="3021.24" y2="1160.6"/><line class="cls-3" x1="-41" y1="1617.94" x2="3021.83" y2="1164.56"/><line class="cls-3" x1="-40.42" y1="1621.89" x2="3022.41" y2="1168.52"/><line class="cls-3" x1="-39.83" y1="1625.85" x2="3023" y2="1172.47"/><line class="cls-3" x1="-39.25" y1="1629.81" x2="3023.58" y2="1176.43"/><line class="cls-3" x1="-38.66" y1="1633.76" x2="3024.17" y2="1180.39"/><line class="cls-3" x1="-38.07" y1="1637.72" x2="3024.76" y2="1184.34"/><line class="cls-3" x1="-37.49" y1="1641.68" x2="3025.34" y2="1188.3"/><line class="cls-3" x1="-36.9" y1="1645.63" x2="3025.93" y2="1192.26"/><line class="cls-3" x1="-36.32" y1="1649.59" x2="3026.51" y2="1196.21"/><line class="cls-3" x1="-35.73" y1="1653.55" x2="3027.1" y2="1200.17"/><line class="cls-3" x1="-35.15" y1="1657.5" x2="3027.68" y2="1204.13"/><line class="cls-3" x1="-34.56" y1="1661.46" x2="3028.27" y2="1208.08"/><line class="cls-3" x1="-33.97" y1="1665.42" x2="3028.86" y2="1212.04"/><line class="cls-3" x1="-33.39" y1="1669.37" x2="3029.44" y2="1216"/><line class="cls-3" x1="-32.8" y1="1673.33" x2="3030.03" y2="1219.95"/><line class="cls-3" x1="-32.22" y1="1677.29" x2="3030.61" y2="1223.91"/><line class="cls-3" x1="-31.63" y1="1681.24" x2="3031.2" y2="1227.87"/><line class="cls-3" x1="-31.05" y1="1685.2" x2="3031.78" y2="1231.82"/><line class="cls-3" x1="-30.46" y1="1689.16" x2="3032.37" y2="1235.78"/><line class="cls-3" x1="-29.88" y1="1693.11" x2="3032.95" y2="1239.74"/><line class="cls-3" x1="-29.29" y1="1697.07" x2="3033.54" y2="1243.69"/><line class="cls-3" x1="-28.7" y1="1701.03" x2="3034.13" y2="1247.65"/><line class="cls-3" x1="-28.12" y1="1704.98" x2="3034.71" y2="1251.61"/><line class="cls-3" x1="-27.53" y1="1708.94" x2="3035.3" y2="1255.56"/><line class="cls-3" x1="-26.95" y1="1712.9" x2="3035.88" y2="1259.52"/><line class="cls-3" x1="-26.36" y1="1716.85" x2="3036.47" y2="1263.48"/><line class="cls-3" x1="-25.78" y1="1720.81" x2="3037.05" y2="1267.43"/><line class="cls-3" x1="-25.19" y1="1724.77" x2="3037.64" y2="1271.39"/><line class="cls-3" x1="-24.6" y1="1728.72" x2="3038.23" y2="1275.35"/><line class="cls-3" x1="-24.02" y1="1732.68" x2="3038.81" y2="1279.3"/><line class="cls-3" x1="-23.43" y1="1736.64" x2="3039.4" y2="1283.26"/><line class="cls-3" x1="-22.85" y1="1740.59" x2="3039.98" y2="1287.22"/><line class="cls-3" x1="-22.26" y1="1744.55" x2="3040.57" y2="1291.17"/><line class="cls-3" x1="-21.68" y1="1748.51" x2="3041.15" y2="1295.13"/><line class="cls-3" x1="-21.09" y1="1752.46" x2="3041.74" y2="1299.09"/><line class="cls-3" x1="-20.5" y1="1756.42" x2="3042.33" y2="1303.04"/><line class="cls-3" x1="-19.92" y1="1760.38" x2="3042.91" y2="1307"/><line class="cls-3" x1="-19.33" y1="1764.33" x2="3043.5" y2="1310.96"/><line class="cls-3" x1="-18.75" y1="1768.29" x2="3044.08" y2="1314.91"/><line class="cls-3" x1="-18.16" y1="1772.25" x2="3044.67" y2="1318.87"/><line class="cls-3" x1="-17.58" y1="1776.2" x2="3045.25" y2="1322.83"/><line class="cls-3" x1="-16.99" y1="1780.16" x2="3045.84" y2="1326.78"/><line class="cls-3" x1="-16.4" y1="1784.11" x2="3046.43" y2="1330.74"/><line class="cls-3" x1="-15.82" y1="1788.07" x2="3047.01" y2="1334.7"/><line class="cls-3" x1="-15.23" y1="1792.03" x2="3047.6" y2="1338.65"/><line class="cls-3" x1="-14.65" y1="1795.98" x2="3048.18" y2="1342.61"/><line class="cls-3" x1="-14.06" y1="1799.94" x2="3048.77" y2="1346.57"/><line class="cls-3" x1="-13.48" y1="1803.9" x2="3049.35" y2="1350.52"/><line class="cls-3" x1="-12.89" y1="1807.85" x2="3049.94" y2="1354.48"/><line class="cls-3" x1="-12.3" y1="1811.81" x2="3050.53" y2="1358.44"/><line class="cls-3" x1="-11.72" y1="1815.77" x2="3051.11" y2="1362.39"/><line class="cls-3" x1="-11.13" y1="1819.72" x2="3051.7" y2="1366.35"/><line class="cls-3" x1="-10.55" y1="1823.68" x2="3052.28" y2="1370.3"/><line class="cls-3" x1="-9.96" y1="1827.64" x2="3052.87" y2="1374.26"/><line class="cls-3" x1="-9.38" y1="1831.59" x2="3053.45" y2="1378.22"/><line class="cls-3" x1="-8.79" y1="1835.55" x2="3054.04" y2="1382.17"/><line class="cls-3" x1="-8.2" y1="1839.51" x2="3054.62" y2="1386.13"/><line class="cls-3" x1="-7.62" y1="1843.46" x2="3055.21" y2="1390.09"/><line class="cls-3" x1="-7.03" y1="1847.42" x2="3055.8" y2="1394.04"/><line class="cls-3" x1="-6.45" y1="1851.38" x2="3056.38" y2="1398"/><line class="cls-3" x1="-5.86" y1="1855.33" x2="3056.97" y2="1401.96"/><line class="cls-3" x1="-5.28" y1="1859.29" x2="3057.55" y2="1405.91"/><line class="cls-3" x1="-4.69" y1="1863.25" x2="3058.14" y2="1409.87"/><line class="cls-3" x1="-4.11" y1="1867.2" x2="3058.72" y2="1413.83"/><line class="cls-3" x1="-3.52" y1="1871.16" x2="3059.31" y2="1417.78"/><line class="cls-3" x1="-2.93" y1="1875.12" x2="3059.9" y2="1421.74"/><line class="cls-3" x1="-2.35" y1="1879.07" x2="3060.48" y2="1425.7"/><line class="cls-3" x1="-1.76" y1="1883.03" x2="3061.07" y2="1429.65"/><line class="cls-3" x1="-1.18" y1="1886.99" x2="3061.65" y2="1433.61"/><line class="cls-3" x1="-0.59" y1="1890.94" x2="3062.24" y2="1437.57"/><line class="cls-3" x1="-0.01" y1="1894.9" x2="3062.82" y2="1441.52"/><line class="cls-3" x1="0.58" y1="1898.86" x2="3063.41" y2="1445.48"/><line class="cls-3" x1="1.17" y1="1902.81" x2="3064" y2="1449.44"/><line class="cls-3" x1="1.75" y1="1906.77" x2="3064.58" y2="1453.39"/><line class="cls-3" x1="2.34" y1="1910.73" x2="3065.17" y2="1457.35"/><line class="cls-3" x1="2.92" y1="1914.68" x2="3065.75" y2="1461.31"/><line class="cls-3" x1="3.51" y1="1918.64" x2="3066.34" y2="1465.26"/><line class="cls-3" x1="4.09" y1="1922.6" x2="3066.92" y2="1469.22"/><line class="cls-3" x1="4.68" y1="1926.55" x2="3067.51" y2="1473.18"/><line class="cls-3" x1="5.27" y1="1930.51" x2="3068.1" y2="1477.13"/><line class="cls-3" x1="5.85" y1="1934.47" x2="3068.68" y2="1481.09"/><line class="cls-3" x1="6.44" y1="1938.42" x2="3069.27" y2="1485.05"/><line class="cls-3" x1="7.02" y1="1942.38" x2="3069.85" y2="1489"/><line class="cls-3" x1="7.61" y1="1946.34" x2="3070.44" y2="1492.96"/><line class="cls-3" x1="8.19" y1="1950.29" x2="3071.02" y2="1496.92"/><line class="cls-3" x1="8.78" y1="1954.25" x2="3071.61" y2="1500.87"/><line class="cls-3" x1="9.37" y1="1958.21" x2="3072.2" y2="1504.83"/><line class="cls-3" x1="9.95" y1="1962.16" x2="3072.78" y2="1508.79"/><line class="cls-3" x1="10.54" y1="1966.12" x2="3073.37" y2="1512.74"/><line class="cls-3" x1="11.12" y1="1970.08" x2="3073.95" y2="1516.7"/><line class="cls-3" x1="11.71" y1="1974.03" x2="3074.54" y2="1520.66"/><line class="cls-3" x1="12.29" y1="1977.99" x2="3075.12" y2="1524.61"/><line class="cls-3" x1="12.88" y1="1981.95" x2="3075.71" y2="1528.57"/><line class="cls-3" x1="13.47" y1="1985.9" x2="3076.29" y2="1532.53"/><line class="cls-3" x1="14.05" y1="1989.86" x2="3076.88" y2="1536.48"/><line class="cls-3" x1="14.64" y1="1993.82" x2="3077.47" y2="1540.44"/><line class="cls-3" x1="15.22" y1="1997.77" x2="3078.05" y2="1544.4"/><line class="cls-3" x1="15.81" y1="2001.73" x2="3078.64" y2="1548.35"/><line class="cls-3" x1="16.39" y1="2005.69" x2="3079.22" y2="1552.31"/><line class="cls-3" x1="16.98" y1="2009.64" x2="3079.81" y2="1556.27"/><line class="cls-3" x1="17.56" y1="2013.6" x2="3080.39" y2="1560.22"/><line class="cls-3" x1="18.15" y1="2017.56" x2="3080.98" y2="1564.18"/><line class="cls-3" x1="18.74" y1="2021.51" x2="3081.57" y2="1568.14"/><line class="cls-3" x1="19.32" y1="2025.47" x2="3082.15" y2="1572.09"/><line class="cls-3" x1="19.91" y1="2029.42" x2="3082.74" y2="1576.05"/><line class="cls-3" x1="20.49" y1="2033.38" x2="3083.32" y2="1580.01"/><line class="cls-3" x1="21.08" y1="2037.34" x2="3083.91" y2="1583.96"/><line class="cls-3" x1="21.66" y1="2041.29" x2="3084.49" y2="1587.92"/><line class="cls-3" x1="22.25" y1="2045.25" x2="3085.08" y2="1591.88"/><line class="cls-3" x1="22.84" y1="2049.21" x2="3085.67" y2="1595.83"/><line class="cls-3" x1="23.42" y1="2053.16" x2="3086.25" y2="1599.79"/><line class="cls-3" x1="24.01" y1="2057.12" x2="3086.84" y2="1603.74"/><line class="cls-3" x1="24.59" y1="2061.08" x2="3087.42" y2="1607.7"/><line class="cls-3" x1="25.18" y1="2065.03" x2="3088.01" y2="1611.66"/><line class="cls-3" x1="25.76" y1="2068.99" x2="3088.59" y2="1615.61"/><line class="cls-3" x1="26.35" y1="2072.95" x2="3089.18" y2="1619.57"/><line class="cls-3" x1="26.94" y1="2076.9" x2="3089.77" y2="1623.53"/><line class="cls-3" x1="27.52" y1="2080.86" x2="3090.35" y2="1627.48"/><line class="cls-3" x1="28.11" y1="2084.82" x2="3090.94" y2="1631.44"/><line class="cls-3" x1="28.69" y1="2088.77" x2="3091.52" y2="1635.4"/><line class="cls-3" x1="29.28" y1="2092.73" x2="3092.11" y2="1639.35"/><line class="cls-3" x1="29.86" y1="2096.69" x2="3092.69" y2="1643.31"/><line class="cls-3" x1="30.45" y1="2100.64" x2="3093.28" y2="1647.27"/><line class="cls-3" x1="31.04" y1="2104.6" x2="3093.87" y2="1651.22"/><line class="cls-3" x1="31.62" y1="2108.56" x2="3094.45" y2="1655.18"/><line class="cls-3" x1="32.21" y1="2112.51" x2="3095.04" y2="1659.14"/><line class="cls-3" x1="32.79" y1="2116.47" x2="3095.62" y2="1663.09"/><line class="cls-3" x1="33.38" y1="2120.43" x2="3096.21" y2="1667.05"/><line class="cls-3" x1="33.96" y1="2124.38" x2="3096.79" y2="1671.01"/><line class="cls-3" x1="34.55" y1="2128.34" x2="3097.38" y2="1674.96"/><line class="cls-3" x1="35.14" y1="2132.3" x2="3097.97" y2="1678.92"/><line class="cls-3" x1="35.72" y1="2136.25" x2="3098.55" y2="1682.88"/><path class="cls-3" d="M16.81-630.28c813.12-760.6,2088.87-718,2849.47,95.09C3544.59,190,3584.12,1283.06,3008,2050.57a2029.1,2029.1,0,0,1-236.81,263.71c-813.12,760.6-2088.87,718-2849.47-95.09C-756.59,1494-796.12,400.94-220-366.57"/><path class="cls-4" d="M41.79-605.14C841-1352.38,2094.64-1310.25,2841.87-511c666.4,712.75,705,1786.92,138.67,2541A1992,1992,0,0,1,2747.77,2289c-799.21,747.24-2052.84,705.11-2800.08-94.1C-718.7,1482.2-757.29,408-191-346"/><path class="cls-5" d="M66.78-580c785.3-733.87,2016.82-692.18,2750.69,93.12,654.47,700.33,692.13,1755.57,135.61,2496.22a1957.55,1957.55,0,0,1-228.72,254.47C1939.06,2997.68,707.54,2956-26.34,2170.69-680.81,1470.36-718.46,415.12-161.95-325.53"/><path class="cls-6" d="M91.76-554.86c771.39-720.5,1980.8-679.26,2701.3,92.13,642.56,687.93,679.28,1724.24,132.56,2451.46a1922.47,1922.47,0,0,1-224.68,249.84C1929.55,2959.08,720.14,2917.83-.37,2146.45-642.92,1458.52-679.64,422.2-132.92-305"/><path class="cls-7" d="M116.74-529.72C874.22-1236.86,2061.52-1196,2768.66-438.58c630.64,675.53,666.41,1692.91,129.5,2406.7a1887.39,1887.39,0,0,1-220.64,245.22C1920.05,2920.48,732.75,2879.67,25.61,2122.2-605,1446.67-640.81,429.29-103.9-284.5"/><path class="cls-8" d="M141.73-504.58C885.29-1198.35,2050.48-1158,2744.26-414.43,3363,248.69,3397.81,1247.15,2870.7,1947.5a1851,1851,0,0,1-216.6,240.6C1910.54,2881.88,745.35,2841.52,51.58,2098-567.14,1434.83-602,436.38-74.87-264"/><path class="cls-9" d="M166.71-479.44c729.66-680.41,1872.73-640.49,2553.14,89.17,606.8,650.71,640.7,1630.24,123.39,2317.16a1816.57,1816.57,0,0,1-212.55,236C1901,2843.28,758,2803.36,77.55,2073.7-529.25,1423-563.15,443.46-45.85-243.46"/><path class="cls-10" d="M191.7-454.3c715.74-667,1836.7-627.56,2503.75,88.18,594.87,638.31,627.84,1598.9,120.34,2272.4a1781.57,1781.57,0,0,1-208.52,231.35c-715.74,667-1836.7,627.57-2503.75-88.18-594.88-638.3-627.84-1598.9-120.34-2272.4"/><path class="cls-11" d="M216.68-429.16C918.51-1082.83,2017.36-1043.8,2671-342c583,625.9,615,1567.57,117.29,2227.64a1747.15,1747.15,0,0,1-204.48,226.72C1882,2766.07,783.17,2727,129.49,2025.21c-583-625.9-615-1567.57-117.28-2227.64"/><path class="cls-12" d="M241.66-404c687.92-640.32,1764.66-601.73,2405,86.19,571,613.5,602.12,1536.24,114.23,2182.88a1712.71,1712.71,0,0,1-200.43,222.1c-687.92,640.31-1764.66,601.72-2405-86.2-571-613.5-602.12-1536.24-114.23-2182.87"/><path class="cls-13" d="M266.65-378.87c674-626.95,1728.63-588.8,2355.58,85.21,559.12,601.09,589.27,1504.9,111.18,2138.1A1676.33,1676.33,0,0,1,2537,2061.92c-674,626.95-1728.64,588.8-2355.59-85.21C-377.68,1375.62-407.83,471.81,70.26-161.4"/><path class="cls-14" d="M291.63-353.73c660.1-613.59,1692.61-575.88,2306.2,84.22C3145,319.17,3174.24,1204.06,2706,1823.83a1641.25,1641.25,0,0,1-192.35,212.86C1853.5,2650.27,821,2612.56,207.41,1952.46-339.79,1363.78-369,478.9,99.28-140.88"/><path class="cls-15" d="M316.61-328.59C962.8-928.81,1973.2-891.54,2573.42-245.36,3108.7,330.92,3137,1196.88,2678.49,1803.22a1606.09,1606.09,0,0,1-188.3,208.23c-646.19,600.22-1656.6,563-2256.81-83.23C-301.9,1351.94-330.18,486,128.31-120.36"/><path class="cls-16" d="M341.6-303.45C973.87-890.31,1962.17-853.48,2549-221.2c523.36,563.87,550.69,1410.89,102,2003.81a1571.74,1571.74,0,0,1-184.26,203.61c-632.28,586.85-1620.57,550-2207.42-82.25C-264,1340.1-291.35,493.07,157.33-99.85"/><path class="cls-17" d="M366.58-278.31C985-851.8,1951.13-815.42,2524.61-197c511.44,551.46,537.84,1379.56,99,1959.05a1536.74,1536.74,0,0,1-180.23,199c-618.36,573.49-1584.54,537.11-2158-81.26-511.44-551.47-537.84-1379.56-99-1959"/><path class="cls-18" d="M391.56-253.17C996-813.29,1940.09-777.35,2500.21-172.9c499.52,539.06,525,1348.23,95.91,1914.28a1499.7,1499.7,0,0,1-176.19,194.36c-604.45,560.13-1548.52,524.19-2108.64-80.27-499.52-539.06-525-1348.23-95.91-1914.28"/><path class="cls-19" d="M416.55-228c590.54-546.76,1512.5-511.26,2059.25,79.28,487.6,526.66,512.13,1316.9,92.86,1869.52a1465.92,1465.92,0,0,1-172.14,189.74C1806,2457.26,884,2421.77,337.26,1831.22-150.34,1304.57-174.86,514.33,244.41-38.3"/><path class="cls-20" d="M441.53-202.89C1018.16-736.28,1918-701.23,2451.4-124.59c475.68,514.24,499.27,1285.56,89.8,1824.75a1430.12,1430.12,0,0,1-168.1,185.11C1796.47,2418.66,896.62,2383.61,363.23,1807-112.45,1292.73-136,521.42,273.43-17.78"/><path class="cls-21" d="M466.51-177.75C1029.24-697.78,1907-663.16,2427-100.44c463.77,501.84,486.41,1254.23,86.75,1780A1395,1395,0,0,1,2349.68,1860c-562.72,520-1440.45,485.41-1960.48-77.31C-74.56,1280.89-97.21,528.5,302.46,2.74"/><path class="cls-22" d="M491.5-152.61C1040.31-659.27,1895.93-625.1,2402.59-76.29c451.84,489.44,473.55,1222.89,83.69,1735.23a1359.88,1359.88,0,0,1-160,175.86c-548.81,506.66-1404.43,472.49-1911.09-76.32C-36.67,1269.05-58.38,535.59,331.48,23.26"/><path class="cls-23" d="M516.48-127.47C1051.38-620.76,1884.89-587,2378.18-52.14c439.93,477,460.7,1191.56,80.64,1690.46a1324.23,1324.23,0,0,1-156,171.25c-534.9,493.29-1368.41,459.56-1861.7-75.34C1.22,1257.2-19.55,542.68,360.51,43.77"/><path class="cls-24" d="M541.46-102.33C1062.45-582.26,1873.85-549,2353.78-28c428,464.62,447.84,1160.22,77.59,1645.69a1289.24,1289.24,0,0,1-151.94,166.62C1758.44,2264.26,947.05,2231,467.12,1710,39.11,1245.36,19.28,549.76,389.53,64.29"/><path class="cls-25" d="M566.45-77.19C1073.53-543.75,1862.81-510.91,2329.37-3.83c416.09,452.22,435,1128.89,74.54,1600.93a1254.81,1254.81,0,0,1-147.89,162c-507.08,466.56-1296.37,433.71-1762.93-73.36C77,1233.52,58.11,556.85,418.56,84.81"/><path class="cls-26" d="M591.43-52C1084.6-505.25,1851.77-472.84,2305,20.32c404.17,439.81,422.12,1097.56,71.48,1556.17a1220.38,1220.38,0,0,1-143.85,157.37c-493.17,453.2-1260.34,420.8-1713.54-72.37C114.9,1221.68,96.94,563.94,447.58,105.32"/><path class="cls-27" d="M616.42-26.91c479.25-439.83,1224.31-407.87,1664.14,71.38,392.25,427.41,409.27,1066.22,68.43,1511.41a1184.58,1184.58,0,0,1-139.81,152.74C1729.93,2148.46,984.86,2116.5,545,1637.24,152.79,1209.84,135.77,571,476.61,125.84"/><path class="cls-28" d="M641.4-1.77c465.34-426.46,1188.29-395,1614.76,70.4,380.33,415,396.41,1034.88,65.37,1466.63a1148.94,1148.94,0,0,1-135.77,148.13C1720.42,2109.85,997.47,2078.34,571,1613,190.68,1198,174.59,578.11,505.63,146.36"/><path class="cls-29" d="M666.38,23.37c451.44-413.1,1152.27-382,1565.38,69.41,368.4,402.59,383.55,1003.55,62.31,1421.87a1113.77,1113.77,0,0,1-131.72,143.5c-451.44,413.1-1152.27,382-1565.37-69.4C228.57,1186.15,213.42,585.19,534.66,166.87"/><path class="cls-30" d="M691.37,48.51c437.52-399.73,1116.24-369.1,1516,68.42C2563.84,507.12,2578,1089.15,2266.62,1494a1079.52,1079.52,0,0,1-127.69,138.88C1701.41,2032.65,1022.68,2002,623,1564.5c-356.49-390.19-370.7-972.22-59.27-1377.11"/><path class="cls-31" d="M716.35,73.65C1140-312.72,1796.58-282.53,2183,141.09c344.56,377.78,357.83,940.88,56.21,1332.34a1044.44,1044.44,0,0,1-123.65,134.25c-423.61,386.37-1080.22,356.18-1466.59-67.43C304.35,1162.47,291.08,599.37,592.71,207.91"/><path class="cls-32" d="M741.33,98.79c409.7-373,1044.21-343.25,1417.21,66.45,332.65,365.37,345,909.55,53.16,1287.58a1010,1010,0,0,1-119.6,129.63c-409.7,373-1044.21,343.25-1417.21-66.45-332.65-365.37-345-909.55-53.16-1287.58"/><path class="cls-33" d="M766.32,123.93C1162.11-235.7,1774.5-206.4,2134.14,189.39c320.73,353,332.12,878.21,50.1,1242.81a973.63,973.63,0,0,1-115.56,125c-395.79,359.64-1008.18,330.33-1367.82-65.46-320.73-353-332.12-878.21-50.1-1242.81"/><path class="cls-34" d="M791.3,149.08c381.88-346.28,972.16-317.41,1318.43,64.46,308.81,340.57,319.27,846.88,47.05,1198.05A938.5,938.5,0,0,1,2045.26,1532c-381.88,346.28-972.15,317.41-1318.43-64.46C418,1126.94,407.57,620.63,679.78,269.46"/><path class="cls-35" d="M816.28,174.22c368-332.91,936.14-304.49,1269.05,63.48,296.89,328.15,306.4,815.54,44,1153.28a904.07,904.07,0,0,1-107.47,115.76c-368,332.91-936.14,304.49-1269-63.48C455.91,1115.1,446.4,627.71,708.81,290"/><path class="cls-36" d="M841.27,199.36c354-319.55,900.11-291.57,1219.65,62.49,285,315.75,293.55,784.21,40.94,1108.52a869,869,0,0,1-103.43,111.13c-354.06,319.55-900.11,291.57-1219.66-62.49-285-315.75-293.55-784.21-40.94-1108.52"/><path class="cls-37" d="M866.25,224.5C1206.4-81.68,1730.34-54.14,2036.52,286c273.05,303.35,280.69,752.88,37.89,1063.76a834.75,834.75,0,0,1-99.4,106.51c-340.14,306.17-864.09,278.64-1170.26-61.51C531.69,1091.42,524.05,641.89,766.86,331"/><path class="cls-38" d="M891.23,249.64C1217.47-43.17,1719.3-16.08,2012.11,310.15c261.13,290.94,267.84,721.54,34.84,1019A798.37,798.37,0,0,1,1951.59,1431c-326.23,292.81-828.06,265.72-1120.87-60.52C569.59,1079.58,562.88,649,795.88,351.53"/><path class="cls-39" d="M916.22,274.78c312.32-279.45,792-252.8,1071.49,59.53,249.21,278.53,255,690.2,31.78,974.22a763.24,763.24,0,0,1-91.31,97.27c-312.33,279.44-792,252.79-1071.49-59.53-249.21-278.54-255-690.21-31.78-974.23"/><path class="cls-40" d="M941.2,299.92c298.41-266.08,756-239.87,1022.1,58.54,237.3,266.13,242.12,658.87,28.73,929.46a727.46,727.46,0,0,1-87.27,92.64c-298.41,266.08-756,239.87-1022.1-58.54-237.29-266.13-242.12-658.87-28.73-929.46"/><path class="cls-41" d="M966.19,325.06c284.5-252.72,720-226.95,972.71,57.55,225.37,253.72,229.26,627.54,25.67,884.7a693.81,693.81,0,0,1-83.23,88c-284.5,252.71-720,226.94-972.71-57.56C683.26,1044.05,679.37,670.23,883,413.08"/><path class="cls-42" d="M991.17,350.2c270.59-239.35,684-214,923.32,56.57C2128,648.08,2130.9,1003,1937.11,1246.7a658.66,658.66,0,0,1-79.18,83.39c-270.59,239.35-684,214-923.33-56.57C721.15,1032.21,718.2,677.32,912,433.59"/><path class="cls-43" d="M1016.15,375.34c256.68-226,647.95-201.1,873.94,55.58,201.53,228.91,203.55,564.87,19.56,795.16a622.28,622.28,0,0,1-75.14,78.77c-256.68,226-647.95,201.1-873.94-55.57C759,1020.37,757,684.41,941,454.11"/><path class="cls-44" d="M1041.14,400.48c242.76-212.62,611.92-188.18,824.54,54.59,189.62,216.5,190.7,533.53,16.52,750.4a587.38,587.38,0,0,1-71.11,74.15c-242.77,212.62-611.93,188.18-824.54-54.59C796.93,1008.52,795.85,691.49,970,474.63"/><path class="cls-45" d="M1066.12,425.62C1295,226.37,1642,250.37,1841.28,479.22c177.69,204.1,177.83,502.2,13.46,705.64a552.24,552.24,0,0,1-67.06,69.52c-228.86,199.26-575.91,175.26-775.16-53.6-177.7-204.1-177.84-502.2-13.46-705.64"/><path class="cls-46" d="M1091.1,450.76c215-185.89,539.89-162.33,725.77,52.62,165.78,191.69,165,470.86,10.41,660.87a517.93,517.93,0,0,1-63,64.9c-215,185.88-539.88,162.33-725.77-52.62-165.78-191.69-165-470.86-10.41-660.87"/><path class="cls-47" d="M1116.09,475.9c201-172.52,503.86-149.41,676.38,51.63,153.86,179.28,152.12,439.53,7.35,616.11a482.18,482.18,0,0,1-59,60.27c-201,172.52-503.86,149.41-676.38-51.63C910.6,973,912.34,712.75,1057.11,536.18"/><path class="cls-48" d="M1141.07,501c187.12-159.15,467.84-136.48,627,50.64,141.94,166.88,139.27,408.2,4.3,571.34a447.19,447.19,0,0,1-54.93,55.66c-187.13,159.15-467.84,136.48-627-50.64-141.94-166.88-139.26-408.2-4.3-571.35"/><path class="cls-49" d="M1166.05,526.18c173.22-145.79,431.82-123.56,577.61,49.65,130,154.48,126.4,376.86,1.24,526.58a412.15,412.15,0,0,1-50.89,51c-173.21,145.79-431.82,123.56-577.61-49.65-130-154.47-126.4-376.86-1.24-526.58"/><path class="cls-50" d="M1191,551.32c159.3-132.42,395.79-110.64,528.21,48.67,118.1,142.06,113.55,345.52-1.81,481.81a376.43,376.43,0,0,1-46.85,46.4c-159.3,132.43-395.79,110.64-528.22-48.66-118.1-142.07-113.54-345.53,1.81-481.81"/><path class="cls-51" d="M1216,576.46c145.39-119.06,359.77-97.71,478.83,47.68C1801,753.8,1795.54,938.33,1690,1061.19a343,343,0,0,1-42.82,41.78c-145.39,119.06-359.77,97.71-478.83-47.68-106.17-129.66-100.69-314.19,4.87-437"/><path class="cls-52" d="M1241,601.6c131.48-105.69,323.75-84.79,429.45,46.69,94.25,117.26,87.83,282.86-7.92,392.29a307.88,307.88,0,0,1-38.77,37.15c-131.48,105.7-323.75,84.8-429.44-46.68-94.26-117.26-87.84-282.86,7.91-392.29"/><path class="cls-53" d="M1266,626.74c117.57-92.33,287.72-71.86,380,45.7,82.34,104.85,75,251.53-11,347.52a272.37,272.37,0,0,1-34.73,32.54c-117.57,92.33-287.72,71.87-380-45.7-82.34-104.85-75-251.53,11-347.52"/><path class="cls-54" d="M1291,651.88c103.66-79,251.7-58.94,330.67,44.72,70.42,92.44,62.11,220.19-14,302.75a236.78,236.78,0,0,1-30.69,27.91c-103.65,79-251.7,59-330.66-44.71-70.42-92.44-62.12-220.19,14-302.75"/><path class="cls-55" d="M1316,677c89.75-65.6,215.68-46,281.28,43.72,58.5,80,49.26,188.85-17.08,258a202.61,202.61,0,0,1-26.64,23.29c-89.75,65.59-215.68,46-281.28-43.73-58.5-80-49.26-188.85,17.08-258"/><path class="cls-56" d="M1340.94,702.17a166.51,166.51,0,1,1-22.61,18.66"/><path class="cls-57" d="M1365.92,727.31a132.25,132.25,0,1,1-18.56,14"/><path class="cls-58" d="M1390.91,752.45a98.28,98.28,0,1,1-14.53,9.41"/><path class="cls-59" d="M1415.89,777.59a65.45,65.45,0,1,1-10.48,4.79"/><path class="cls-60" d="M1440.87,802.73a36.63,36.63,0,0,1,2,72.95,37.23,37.23,0,0,1-6.44.17,36.63,36.63,0,0,1-2-73"/></g></svg>